%TF.GenerationSoftware,KiCad,Pcbnew,8.0.9-8.0.9-0~ubuntu24.04.1*%
%TF.CreationDate,2025-04-16T18:13:24-04:00*%
%TF.ProjectId,open_game_module,6f70656e-5f67-4616-9d65-5f6d6f64756c,rev?*%
%TF.SameCoordinates,Original*%
%TF.FileFunction,Legend,Top*%
%TF.FilePolarity,Positive*%
%FSLAX46Y46*%
G04 Gerber Fmt 4.6, Leading zero omitted, Abs format (unit mm)*
G04 Created by KiCad (PCBNEW 8.0.9-8.0.9-0~ubuntu24.04.1) date 2025-04-16 18:13:24*
%MOMM*%
%LPD*%
G01*
G04 APERTURE LIST*
%ADD10C,0.150000*%
%ADD11C,0.120000*%
%ADD12C,0.100000*%
G04 APERTURE END LIST*
D10*
X140166666Y-112954819D02*
X140166666Y-113669104D01*
X140166666Y-113669104D02*
X140119047Y-113811961D01*
X140119047Y-113811961D02*
X140023809Y-113907200D01*
X140023809Y-113907200D02*
X139880952Y-113954819D01*
X139880952Y-113954819D02*
X139785714Y-113954819D01*
X140595238Y-113050057D02*
X140642857Y-113002438D01*
X140642857Y-113002438D02*
X140738095Y-112954819D01*
X140738095Y-112954819D02*
X140976190Y-112954819D01*
X140976190Y-112954819D02*
X141071428Y-113002438D01*
X141071428Y-113002438D02*
X141119047Y-113050057D01*
X141119047Y-113050057D02*
X141166666Y-113145295D01*
X141166666Y-113145295D02*
X141166666Y-113240533D01*
X141166666Y-113240533D02*
X141119047Y-113383390D01*
X141119047Y-113383390D02*
X140547619Y-113954819D01*
X140547619Y-113954819D02*
X141166666Y-113954819D01*
X137833333Y-104359580D02*
X137785714Y-104407200D01*
X137785714Y-104407200D02*
X137642857Y-104454819D01*
X137642857Y-104454819D02*
X137547619Y-104454819D01*
X137547619Y-104454819D02*
X137404762Y-104407200D01*
X137404762Y-104407200D02*
X137309524Y-104311961D01*
X137309524Y-104311961D02*
X137261905Y-104216723D01*
X137261905Y-104216723D02*
X137214286Y-104026247D01*
X137214286Y-104026247D02*
X137214286Y-103883390D01*
X137214286Y-103883390D02*
X137261905Y-103692914D01*
X137261905Y-103692914D02*
X137309524Y-103597676D01*
X137309524Y-103597676D02*
X137404762Y-103502438D01*
X137404762Y-103502438D02*
X137547619Y-103454819D01*
X137547619Y-103454819D02*
X137642857Y-103454819D01*
X137642857Y-103454819D02*
X137785714Y-103502438D01*
X137785714Y-103502438D02*
X137833333Y-103550057D01*
X138785714Y-104454819D02*
X138214286Y-104454819D01*
X138500000Y-104454819D02*
X138500000Y-103454819D01*
X138500000Y-103454819D02*
X138404762Y-103597676D01*
X138404762Y-103597676D02*
X138309524Y-103692914D01*
X138309524Y-103692914D02*
X138214286Y-103740533D01*
X165333333Y-78109580D02*
X165285714Y-78157200D01*
X165285714Y-78157200D02*
X165142857Y-78204819D01*
X165142857Y-78204819D02*
X165047619Y-78204819D01*
X165047619Y-78204819D02*
X164904762Y-78157200D01*
X164904762Y-78157200D02*
X164809524Y-78061961D01*
X164809524Y-78061961D02*
X164761905Y-77966723D01*
X164761905Y-77966723D02*
X164714286Y-77776247D01*
X164714286Y-77776247D02*
X164714286Y-77633390D01*
X164714286Y-77633390D02*
X164761905Y-77442914D01*
X164761905Y-77442914D02*
X164809524Y-77347676D01*
X164809524Y-77347676D02*
X164904762Y-77252438D01*
X164904762Y-77252438D02*
X165047619Y-77204819D01*
X165047619Y-77204819D02*
X165142857Y-77204819D01*
X165142857Y-77204819D02*
X165285714Y-77252438D01*
X165285714Y-77252438D02*
X165333333Y-77300057D01*
X166238095Y-77204819D02*
X165761905Y-77204819D01*
X165761905Y-77204819D02*
X165714286Y-77681009D01*
X165714286Y-77681009D02*
X165761905Y-77633390D01*
X165761905Y-77633390D02*
X165857143Y-77585771D01*
X165857143Y-77585771D02*
X166095238Y-77585771D01*
X166095238Y-77585771D02*
X166190476Y-77633390D01*
X166190476Y-77633390D02*
X166238095Y-77681009D01*
X166238095Y-77681009D02*
X166285714Y-77776247D01*
X166285714Y-77776247D02*
X166285714Y-78014342D01*
X166285714Y-78014342D02*
X166238095Y-78109580D01*
X166238095Y-78109580D02*
X166190476Y-78157200D01*
X166190476Y-78157200D02*
X166095238Y-78204819D01*
X166095238Y-78204819D02*
X165857143Y-78204819D01*
X165857143Y-78204819D02*
X165761905Y-78157200D01*
X165761905Y-78157200D02*
X165714286Y-78109580D01*
X130583333Y-107704819D02*
X130250000Y-107228628D01*
X130011905Y-107704819D02*
X130011905Y-106704819D01*
X130011905Y-106704819D02*
X130392857Y-106704819D01*
X130392857Y-106704819D02*
X130488095Y-106752438D01*
X130488095Y-106752438D02*
X130535714Y-106800057D01*
X130535714Y-106800057D02*
X130583333Y-106895295D01*
X130583333Y-106895295D02*
X130583333Y-107038152D01*
X130583333Y-107038152D02*
X130535714Y-107133390D01*
X130535714Y-107133390D02*
X130488095Y-107181009D01*
X130488095Y-107181009D02*
X130392857Y-107228628D01*
X130392857Y-107228628D02*
X130011905Y-107228628D01*
X130964286Y-106800057D02*
X131011905Y-106752438D01*
X131011905Y-106752438D02*
X131107143Y-106704819D01*
X131107143Y-106704819D02*
X131345238Y-106704819D01*
X131345238Y-106704819D02*
X131440476Y-106752438D01*
X131440476Y-106752438D02*
X131488095Y-106800057D01*
X131488095Y-106800057D02*
X131535714Y-106895295D01*
X131535714Y-106895295D02*
X131535714Y-106990533D01*
X131535714Y-106990533D02*
X131488095Y-107133390D01*
X131488095Y-107133390D02*
X130916667Y-107704819D01*
X130916667Y-107704819D02*
X131535714Y-107704819D01*
X143583333Y-100859580D02*
X143535714Y-100907200D01*
X143535714Y-100907200D02*
X143392857Y-100954819D01*
X143392857Y-100954819D02*
X143297619Y-100954819D01*
X143297619Y-100954819D02*
X143154762Y-100907200D01*
X143154762Y-100907200D02*
X143059524Y-100811961D01*
X143059524Y-100811961D02*
X143011905Y-100716723D01*
X143011905Y-100716723D02*
X142964286Y-100526247D01*
X142964286Y-100526247D02*
X142964286Y-100383390D01*
X142964286Y-100383390D02*
X143011905Y-100192914D01*
X143011905Y-100192914D02*
X143059524Y-100097676D01*
X143059524Y-100097676D02*
X143154762Y-100002438D01*
X143154762Y-100002438D02*
X143297619Y-99954819D01*
X143297619Y-99954819D02*
X143392857Y-99954819D01*
X143392857Y-99954819D02*
X143535714Y-100002438D01*
X143535714Y-100002438D02*
X143583333Y-100050057D01*
X143964286Y-100050057D02*
X144011905Y-100002438D01*
X144011905Y-100002438D02*
X144107143Y-99954819D01*
X144107143Y-99954819D02*
X144345238Y-99954819D01*
X144345238Y-99954819D02*
X144440476Y-100002438D01*
X144440476Y-100002438D02*
X144488095Y-100050057D01*
X144488095Y-100050057D02*
X144535714Y-100145295D01*
X144535714Y-100145295D02*
X144535714Y-100240533D01*
X144535714Y-100240533D02*
X144488095Y-100383390D01*
X144488095Y-100383390D02*
X143916667Y-100954819D01*
X143916667Y-100954819D02*
X144535714Y-100954819D01*
X128583333Y-107704819D02*
X128250000Y-107228628D01*
X128011905Y-107704819D02*
X128011905Y-106704819D01*
X128011905Y-106704819D02*
X128392857Y-106704819D01*
X128392857Y-106704819D02*
X128488095Y-106752438D01*
X128488095Y-106752438D02*
X128535714Y-106800057D01*
X128535714Y-106800057D02*
X128583333Y-106895295D01*
X128583333Y-106895295D02*
X128583333Y-107038152D01*
X128583333Y-107038152D02*
X128535714Y-107133390D01*
X128535714Y-107133390D02*
X128488095Y-107181009D01*
X128488095Y-107181009D02*
X128392857Y-107228628D01*
X128392857Y-107228628D02*
X128011905Y-107228628D01*
X129535714Y-107704819D02*
X128964286Y-107704819D01*
X129250000Y-107704819D02*
X129250000Y-106704819D01*
X129250000Y-106704819D02*
X129154762Y-106847676D01*
X129154762Y-106847676D02*
X129059524Y-106942914D01*
X129059524Y-106942914D02*
X128964286Y-106990533D01*
X132238095Y-84954819D02*
X132238095Y-85764342D01*
X132238095Y-85764342D02*
X132285714Y-85859580D01*
X132285714Y-85859580D02*
X132333333Y-85907200D01*
X132333333Y-85907200D02*
X132428571Y-85954819D01*
X132428571Y-85954819D02*
X132619047Y-85954819D01*
X132619047Y-85954819D02*
X132714285Y-85907200D01*
X132714285Y-85907200D02*
X132761904Y-85859580D01*
X132761904Y-85859580D02*
X132809523Y-85764342D01*
X132809523Y-85764342D02*
X132809523Y-84954819D01*
X133190476Y-84954819D02*
X133809523Y-84954819D01*
X133809523Y-84954819D02*
X133476190Y-85335771D01*
X133476190Y-85335771D02*
X133619047Y-85335771D01*
X133619047Y-85335771D02*
X133714285Y-85383390D01*
X133714285Y-85383390D02*
X133761904Y-85431009D01*
X133761904Y-85431009D02*
X133809523Y-85526247D01*
X133809523Y-85526247D02*
X133809523Y-85764342D01*
X133809523Y-85764342D02*
X133761904Y-85859580D01*
X133761904Y-85859580D02*
X133714285Y-85907200D01*
X133714285Y-85907200D02*
X133619047Y-85954819D01*
X133619047Y-85954819D02*
X133333333Y-85954819D01*
X133333333Y-85954819D02*
X133238095Y-85907200D01*
X133238095Y-85907200D02*
X133190476Y-85859580D01*
X153583333Y-119359580D02*
X153535714Y-119407200D01*
X153535714Y-119407200D02*
X153392857Y-119454819D01*
X153392857Y-119454819D02*
X153297619Y-119454819D01*
X153297619Y-119454819D02*
X153154762Y-119407200D01*
X153154762Y-119407200D02*
X153059524Y-119311961D01*
X153059524Y-119311961D02*
X153011905Y-119216723D01*
X153011905Y-119216723D02*
X152964286Y-119026247D01*
X152964286Y-119026247D02*
X152964286Y-118883390D01*
X152964286Y-118883390D02*
X153011905Y-118692914D01*
X153011905Y-118692914D02*
X153059524Y-118597676D01*
X153059524Y-118597676D02*
X153154762Y-118502438D01*
X153154762Y-118502438D02*
X153297619Y-118454819D01*
X153297619Y-118454819D02*
X153392857Y-118454819D01*
X153392857Y-118454819D02*
X153535714Y-118502438D01*
X153535714Y-118502438D02*
X153583333Y-118550057D01*
X153916667Y-118454819D02*
X154535714Y-118454819D01*
X154535714Y-118454819D02*
X154202381Y-118835771D01*
X154202381Y-118835771D02*
X154345238Y-118835771D01*
X154345238Y-118835771D02*
X154440476Y-118883390D01*
X154440476Y-118883390D02*
X154488095Y-118931009D01*
X154488095Y-118931009D02*
X154535714Y-119026247D01*
X154535714Y-119026247D02*
X154535714Y-119264342D01*
X154535714Y-119264342D02*
X154488095Y-119359580D01*
X154488095Y-119359580D02*
X154440476Y-119407200D01*
X154440476Y-119407200D02*
X154345238Y-119454819D01*
X154345238Y-119454819D02*
X154059524Y-119454819D01*
X154059524Y-119454819D02*
X153964286Y-119407200D01*
X153964286Y-119407200D02*
X153916667Y-119359580D01*
X117488095Y-105204819D02*
X117488095Y-106014342D01*
X117488095Y-106014342D02*
X117535714Y-106109580D01*
X117535714Y-106109580D02*
X117583333Y-106157200D01*
X117583333Y-106157200D02*
X117678571Y-106204819D01*
X117678571Y-106204819D02*
X117869047Y-106204819D01*
X117869047Y-106204819D02*
X117964285Y-106157200D01*
X117964285Y-106157200D02*
X118011904Y-106109580D01*
X118011904Y-106109580D02*
X118059523Y-106014342D01*
X118059523Y-106014342D02*
X118059523Y-105204819D01*
X118488095Y-105300057D02*
X118535714Y-105252438D01*
X118535714Y-105252438D02*
X118630952Y-105204819D01*
X118630952Y-105204819D02*
X118869047Y-105204819D01*
X118869047Y-105204819D02*
X118964285Y-105252438D01*
X118964285Y-105252438D02*
X119011904Y-105300057D01*
X119011904Y-105300057D02*
X119059523Y-105395295D01*
X119059523Y-105395295D02*
X119059523Y-105490533D01*
X119059523Y-105490533D02*
X119011904Y-105633390D01*
X119011904Y-105633390D02*
X118440476Y-106204819D01*
X118440476Y-106204819D02*
X119059523Y-106204819D01*
X138333333Y-110954819D02*
X138000000Y-110478628D01*
X137761905Y-110954819D02*
X137761905Y-109954819D01*
X137761905Y-109954819D02*
X138142857Y-109954819D01*
X138142857Y-109954819D02*
X138238095Y-110002438D01*
X138238095Y-110002438D02*
X138285714Y-110050057D01*
X138285714Y-110050057D02*
X138333333Y-110145295D01*
X138333333Y-110145295D02*
X138333333Y-110288152D01*
X138333333Y-110288152D02*
X138285714Y-110383390D01*
X138285714Y-110383390D02*
X138238095Y-110431009D01*
X138238095Y-110431009D02*
X138142857Y-110478628D01*
X138142857Y-110478628D02*
X137761905Y-110478628D01*
X138666667Y-109954819D02*
X139285714Y-109954819D01*
X139285714Y-109954819D02*
X138952381Y-110335771D01*
X138952381Y-110335771D02*
X139095238Y-110335771D01*
X139095238Y-110335771D02*
X139190476Y-110383390D01*
X139190476Y-110383390D02*
X139238095Y-110431009D01*
X139238095Y-110431009D02*
X139285714Y-110526247D01*
X139285714Y-110526247D02*
X139285714Y-110764342D01*
X139285714Y-110764342D02*
X139238095Y-110859580D01*
X139238095Y-110859580D02*
X139190476Y-110907200D01*
X139190476Y-110907200D02*
X139095238Y-110954819D01*
X139095238Y-110954819D02*
X138809524Y-110954819D01*
X138809524Y-110954819D02*
X138714286Y-110907200D01*
X138714286Y-110907200D02*
X138666667Y-110859580D01*
X128666666Y-78704819D02*
X128666666Y-79419104D01*
X128666666Y-79419104D02*
X128619047Y-79561961D01*
X128619047Y-79561961D02*
X128523809Y-79657200D01*
X128523809Y-79657200D02*
X128380952Y-79704819D01*
X128380952Y-79704819D02*
X128285714Y-79704819D01*
X129666666Y-79704819D02*
X129095238Y-79704819D01*
X129380952Y-79704819D02*
X129380952Y-78704819D01*
X129380952Y-78704819D02*
X129285714Y-78847676D01*
X129285714Y-78847676D02*
X129190476Y-78942914D01*
X129190476Y-78942914D02*
X129095238Y-78990533D01*
X95488095Y-118454819D02*
X95488095Y-117454819D01*
X95488095Y-117931009D02*
X96059523Y-117931009D01*
X96059523Y-118454819D02*
X96059523Y-117454819D01*
X97059523Y-118454819D02*
X96488095Y-118454819D01*
X96773809Y-118454819D02*
X96773809Y-117454819D01*
X96773809Y-117454819D02*
X96678571Y-117597676D01*
X96678571Y-117597676D02*
X96583333Y-117692914D01*
X96583333Y-117692914D02*
X96488095Y-117740533D01*
X163738095Y-93204819D02*
X163738095Y-94014342D01*
X163738095Y-94014342D02*
X163785714Y-94109580D01*
X163785714Y-94109580D02*
X163833333Y-94157200D01*
X163833333Y-94157200D02*
X163928571Y-94204819D01*
X163928571Y-94204819D02*
X164119047Y-94204819D01*
X164119047Y-94204819D02*
X164214285Y-94157200D01*
X164214285Y-94157200D02*
X164261904Y-94109580D01*
X164261904Y-94109580D02*
X164309523Y-94014342D01*
X164309523Y-94014342D02*
X164309523Y-93204819D01*
X165309523Y-94204819D02*
X164738095Y-94204819D01*
X165023809Y-94204819D02*
X165023809Y-93204819D01*
X165023809Y-93204819D02*
X164928571Y-93347676D01*
X164928571Y-93347676D02*
X164833333Y-93442914D01*
X164833333Y-93442914D02*
X164738095Y-93490533D01*
X140333333Y-110954819D02*
X140000000Y-110478628D01*
X139761905Y-110954819D02*
X139761905Y-109954819D01*
X139761905Y-109954819D02*
X140142857Y-109954819D01*
X140142857Y-109954819D02*
X140238095Y-110002438D01*
X140238095Y-110002438D02*
X140285714Y-110050057D01*
X140285714Y-110050057D02*
X140333333Y-110145295D01*
X140333333Y-110145295D02*
X140333333Y-110288152D01*
X140333333Y-110288152D02*
X140285714Y-110383390D01*
X140285714Y-110383390D02*
X140238095Y-110431009D01*
X140238095Y-110431009D02*
X140142857Y-110478628D01*
X140142857Y-110478628D02*
X139761905Y-110478628D01*
X141190476Y-110288152D02*
X141190476Y-110954819D01*
X140952381Y-109907200D02*
X140714286Y-110621485D01*
X140714286Y-110621485D02*
X141333333Y-110621485D01*
X106083333Y-118359580D02*
X106035714Y-118407200D01*
X106035714Y-118407200D02*
X105892857Y-118454819D01*
X105892857Y-118454819D02*
X105797619Y-118454819D01*
X105797619Y-118454819D02*
X105654762Y-118407200D01*
X105654762Y-118407200D02*
X105559524Y-118311961D01*
X105559524Y-118311961D02*
X105511905Y-118216723D01*
X105511905Y-118216723D02*
X105464286Y-118026247D01*
X105464286Y-118026247D02*
X105464286Y-117883390D01*
X105464286Y-117883390D02*
X105511905Y-117692914D01*
X105511905Y-117692914D02*
X105559524Y-117597676D01*
X105559524Y-117597676D02*
X105654762Y-117502438D01*
X105654762Y-117502438D02*
X105797619Y-117454819D01*
X105797619Y-117454819D02*
X105892857Y-117454819D01*
X105892857Y-117454819D02*
X106035714Y-117502438D01*
X106035714Y-117502438D02*
X106083333Y-117550057D01*
X106940476Y-117788152D02*
X106940476Y-118454819D01*
X106702381Y-117407200D02*
X106464286Y-118121485D01*
X106464286Y-118121485D02*
X107083333Y-118121485D01*
X165083333Y-85704819D02*
X164750000Y-85228628D01*
X164511905Y-85704819D02*
X164511905Y-84704819D01*
X164511905Y-84704819D02*
X164892857Y-84704819D01*
X164892857Y-84704819D02*
X164988095Y-84752438D01*
X164988095Y-84752438D02*
X165035714Y-84800057D01*
X165035714Y-84800057D02*
X165083333Y-84895295D01*
X165083333Y-84895295D02*
X165083333Y-85038152D01*
X165083333Y-85038152D02*
X165035714Y-85133390D01*
X165035714Y-85133390D02*
X164988095Y-85181009D01*
X164988095Y-85181009D02*
X164892857Y-85228628D01*
X164892857Y-85228628D02*
X164511905Y-85228628D01*
X165940476Y-84704819D02*
X165750000Y-84704819D01*
X165750000Y-84704819D02*
X165654762Y-84752438D01*
X165654762Y-84752438D02*
X165607143Y-84800057D01*
X165607143Y-84800057D02*
X165511905Y-84942914D01*
X165511905Y-84942914D02*
X165464286Y-85133390D01*
X165464286Y-85133390D02*
X165464286Y-85514342D01*
X165464286Y-85514342D02*
X165511905Y-85609580D01*
X165511905Y-85609580D02*
X165559524Y-85657200D01*
X165559524Y-85657200D02*
X165654762Y-85704819D01*
X165654762Y-85704819D02*
X165845238Y-85704819D01*
X165845238Y-85704819D02*
X165940476Y-85657200D01*
X165940476Y-85657200D02*
X165988095Y-85609580D01*
X165988095Y-85609580D02*
X166035714Y-85514342D01*
X166035714Y-85514342D02*
X166035714Y-85276247D01*
X166035714Y-85276247D02*
X165988095Y-85181009D01*
X165988095Y-85181009D02*
X165940476Y-85133390D01*
X165940476Y-85133390D02*
X165845238Y-85085771D01*
X165845238Y-85085771D02*
X165654762Y-85085771D01*
X165654762Y-85085771D02*
X165559524Y-85133390D01*
X165559524Y-85133390D02*
X165511905Y-85181009D01*
X165511905Y-85181009D02*
X165464286Y-85276247D01*
X165488095Y-118204819D02*
X165488095Y-117204819D01*
X165488095Y-117681009D02*
X166059523Y-117681009D01*
X166059523Y-118204819D02*
X166059523Y-117204819D01*
X166488095Y-117300057D02*
X166535714Y-117252438D01*
X166535714Y-117252438D02*
X166630952Y-117204819D01*
X166630952Y-117204819D02*
X166869047Y-117204819D01*
X166869047Y-117204819D02*
X166964285Y-117252438D01*
X166964285Y-117252438D02*
X167011904Y-117300057D01*
X167011904Y-117300057D02*
X167059523Y-117395295D01*
X167059523Y-117395295D02*
X167059523Y-117490533D01*
X167059523Y-117490533D02*
X167011904Y-117633390D01*
X167011904Y-117633390D02*
X166440476Y-118204819D01*
X166440476Y-118204819D02*
X167059523Y-118204819D01*
X168083333Y-111704819D02*
X167750000Y-111228628D01*
X167511905Y-111704819D02*
X167511905Y-110704819D01*
X167511905Y-110704819D02*
X167892857Y-110704819D01*
X167892857Y-110704819D02*
X167988095Y-110752438D01*
X167988095Y-110752438D02*
X168035714Y-110800057D01*
X168035714Y-110800057D02*
X168083333Y-110895295D01*
X168083333Y-110895295D02*
X168083333Y-111038152D01*
X168083333Y-111038152D02*
X168035714Y-111133390D01*
X168035714Y-111133390D02*
X167988095Y-111181009D01*
X167988095Y-111181009D02*
X167892857Y-111228628D01*
X167892857Y-111228628D02*
X167511905Y-111228628D01*
X168988095Y-110704819D02*
X168511905Y-110704819D01*
X168511905Y-110704819D02*
X168464286Y-111181009D01*
X168464286Y-111181009D02*
X168511905Y-111133390D01*
X168511905Y-111133390D02*
X168607143Y-111085771D01*
X168607143Y-111085771D02*
X168845238Y-111085771D01*
X168845238Y-111085771D02*
X168940476Y-111133390D01*
X168940476Y-111133390D02*
X168988095Y-111181009D01*
X168988095Y-111181009D02*
X169035714Y-111276247D01*
X169035714Y-111276247D02*
X169035714Y-111514342D01*
X169035714Y-111514342D02*
X168988095Y-111609580D01*
X168988095Y-111609580D02*
X168940476Y-111657200D01*
X168940476Y-111657200D02*
X168845238Y-111704819D01*
X168845238Y-111704819D02*
X168607143Y-111704819D01*
X168607143Y-111704819D02*
X168511905Y-111657200D01*
X168511905Y-111657200D02*
X168464286Y-111609580D01*
D11*
%TO.C,J2*%
X126340000Y-113380000D02*
X126340000Y-118580000D01*
X136560000Y-113380000D02*
X126340000Y-113380000D01*
X136560000Y-113380000D02*
X136560000Y-115980000D01*
X136560000Y-115980000D02*
X139160000Y-115980000D01*
X137830000Y-113380000D02*
X139160000Y-113380000D01*
X139160000Y-113380000D02*
X139160000Y-114710000D01*
X139160000Y-115980000D02*
X139160000Y-118580000D01*
X139160000Y-118580000D02*
X126340000Y-118580000D01*
%TO.C,C1*%
X132880000Y-104880000D02*
X132880000Y-105195000D01*
X132880000Y-104880000D02*
X138120000Y-104880000D01*
X132880000Y-107305000D02*
X132880000Y-107620000D01*
X132880000Y-107620000D02*
X138120000Y-107620000D01*
X138120000Y-104880000D02*
X138120000Y-105195000D01*
X138120000Y-107305000D02*
X138120000Y-107620000D01*
%TO.C,C5*%
X166880000Y-78130000D02*
X166880000Y-83370000D01*
X167195000Y-78130000D02*
X166880000Y-78130000D01*
X167195000Y-83370000D02*
X166880000Y-83370000D01*
X169620000Y-78130000D02*
X169305000Y-78130000D01*
X169620000Y-78130000D02*
X169620000Y-83370000D01*
X169620000Y-83370000D02*
X169305000Y-83370000D01*
%TO.C,R2*%
X130756668Y-111227064D02*
X130756668Y-109772936D01*
X132576668Y-111227064D02*
X132576668Y-109772936D01*
%TO.C,C2*%
X142380000Y-102136250D02*
X142695000Y-102136250D01*
X142380000Y-107376250D02*
X142380000Y-102136250D01*
X142380000Y-107376250D02*
X142695000Y-107376250D01*
X144805000Y-102136250D02*
X145120000Y-102136250D01*
X144805000Y-107376250D02*
X145120000Y-107376250D01*
X145120000Y-107376250D02*
X145120000Y-102136250D01*
%TO.C,R1*%
X128423334Y-111227064D02*
X128423334Y-109772936D01*
X130243334Y-111227064D02*
X130243334Y-109772936D01*
%TO.C,U3*%
X98650000Y-88420000D02*
X98650000Y-101340000D01*
X98650000Y-101340000D02*
X134330000Y-101340000D01*
X134330000Y-88420000D02*
X98650000Y-88420000D01*
X134330000Y-93880000D02*
X134330000Y-88420000D01*
X134330000Y-101340000D02*
X134330000Y-95880000D01*
X134330000Y-95880000D02*
G75*
G02*
X134330000Y-93880000I0J1000000D01*
G01*
%TO.C,C3*%
X155880000Y-117630000D02*
X155880000Y-117945000D01*
X155880000Y-117630000D02*
X161120000Y-117630000D01*
X155880000Y-120055000D02*
X155880000Y-120370000D01*
X155880000Y-120370000D02*
X161120000Y-120370000D01*
X161120000Y-117630000D02*
X161120000Y-117945000D01*
X161120000Y-120055000D02*
X161120000Y-120370000D01*
%TO.C,U2*%
X99020000Y-108670000D02*
X99020000Y-110320000D01*
X99020000Y-112320000D02*
X99020000Y-113970000D01*
X99020000Y-113970000D02*
X119460000Y-113970000D01*
X119460000Y-108670000D02*
X99020000Y-108670000D01*
X119460000Y-113970000D02*
X119460000Y-108670000D01*
X99020000Y-110320000D02*
G75*
G02*
X99020000Y-112320000I0J-1000000D01*
G01*
%TO.C,R3*%
X133090001Y-111227064D02*
X133090001Y-109772936D01*
X134910001Y-111227064D02*
X134910001Y-109772936D01*
D12*
%TO.C,U1*%
X147048750Y-95921250D02*
X147048750Y-96421250D01*
X147048750Y-112721250D02*
X147048750Y-111071250D01*
X148198750Y-94771250D02*
X147048750Y-95921250D01*
X148698750Y-94771250D02*
X148198750Y-94771250D01*
X148698750Y-112721250D02*
X147048750Y-112721250D01*
X163348750Y-94771250D02*
X164998750Y-94771250D01*
X163348750Y-112721250D02*
X164998750Y-112721250D01*
X164998750Y-94771250D02*
X164998750Y-96421250D01*
X164998750Y-112721250D02*
X164998750Y-111071250D01*
D11*
%TO.C,R4*%
X135423334Y-111227064D02*
X135423334Y-109772936D01*
X137243334Y-111227064D02*
X137243334Y-109772936D01*
%TO.C,C4*%
X108150000Y-116640000D02*
X108150000Y-116955000D01*
X108150000Y-116640000D02*
X113390000Y-116640000D01*
X108150000Y-119065000D02*
X108150000Y-119380000D01*
X108150000Y-119380000D02*
X113390000Y-119380000D01*
X113390000Y-116640000D02*
X113390000Y-116955000D01*
X113390000Y-119065000D02*
X113390000Y-119380000D01*
%TO.C,R6*%
X166880000Y-87650000D02*
X166880000Y-94190000D01*
X166880000Y-94190000D02*
X169620000Y-94190000D01*
X168250000Y-86880000D02*
X168250000Y-87650000D01*
X168250000Y-94960000D02*
X168250000Y-94190000D01*
X169620000Y-87650000D02*
X166880000Y-87650000D01*
X169620000Y-94190000D02*
X169620000Y-87650000D01*
%TO.C,R5*%
X166880000Y-100980000D02*
X166880000Y-107520000D01*
X166880000Y-107520000D02*
X169620000Y-107520000D01*
X168250000Y-100210000D02*
X168250000Y-100980000D01*
X168250000Y-108290000D02*
X168250000Y-107520000D01*
X169620000Y-100980000D02*
X166880000Y-100980000D01*
X169620000Y-107520000D02*
X169620000Y-100980000D01*
%TD*%
M02*
