M48
; DRILL file {KiCad 8.0.9-8.0.9-0~ubuntu24.04.1} date 2025-04-16T18:13:37-0400
; FORMAT={-:-/ absolute / inch / decimal}
; #@! TF.CreationDate,2025-04-16T18:13:37-04:00
; #@! TF.GenerationSoftware,Kicad,Pcbnew,8.0.9-8.0.9-0~ubuntu24.04.1
; #@! TF.FileFunction,Plated,1,2,PTH
FMAT,2
INCH
; #@! TA.AperFunction,Plated,PTH,ViaDrill
T1C0.0240
; #@! TA.AperFunction,Plated,PTH,ComponentDrill
T2C0.0315
; #@! TA.AperFunction,Plated,PTH,ComponentDrill
T3C0.0394
%
G90
G05
T1
X3.686Y-3.0659
X3.7667Y-4.5374
X3.7887Y-4.4769
X3.8136Y-4.4193
X3.8177Y-3.2173
X3.8681Y-3.7598
X3.8694Y-3.2788
X3.8829Y-3.499
X3.8875Y-3.2041
X3.9764Y-3.6614
X3.9764Y-4.4193
X3.9862Y-3.3261
X4.4291Y-3.1398
X4.5276Y-3.0807
X4.5866Y-3.9173
X4.7236Y-3.1981
X4.8425Y-3.1791
X4.872Y-3.0906
X5.128Y-3.1594
X5.2003Y-3.1761
X5.3524Y-3.3376
X5.3748Y-3.7525
X5.3748Y-3.8105
X5.3748Y-3.8685
X5.3748Y-3.9286
X5.3748Y-3.9866
X5.5217Y-3.168
X5.5709Y-3.208
X5.6447Y-3.4338
X5.6994Y-3.189
X5.7179Y-4.5363
X5.7179Y-4.5943
X5.7247Y-3.2412
X5.762Y-3.2856
X5.9252Y-4.2323
X5.9744Y-4.0354
X5.9843Y-4.1929
X6.0827Y-4.3012
X6.0925Y-4.0354
X6.1834Y-4.2202
X6.1909Y-4.311
X6.2205Y-3.622
X6.2303Y-3.1594
X6.2328Y-4.5374
X6.235Y-4.1587
X6.244Y-4.2186
X6.2927Y-4.5965
X6.3287Y-3.1594
X6.3394Y-3.8597
X6.3394Y-3.9177
X6.3394Y-3.9866
X6.3779Y-4.142
X6.3782Y-4.084
X6.4173Y-3.1693
X6.4567Y-3.7697
X6.5354Y-4.1831
T2
X3.9362Y-3.4354
X3.9362Y-4.0354
X3.9508Y-4.2327
X3.9508Y-4.5327
X4.0362Y-3.4354
X4.0362Y-4.0354
X4.0508Y-4.2327
X4.0508Y-4.5327
X4.1362Y-3.4354
X4.1362Y-4.0354
X4.1508Y-4.2327
X4.1508Y-4.5327
X4.2362Y-3.4354
X4.2362Y-4.0354
X4.2508Y-4.2327
X4.2508Y-4.5327
X4.2626Y-4.6461
X4.3362Y-3.4354
X4.3362Y-4.0354
X4.3508Y-4.2327
X4.3508Y-4.5327
X4.4362Y-3.4354
X4.4362Y-4.0354
X4.4508Y-4.2327
X4.4508Y-4.5327
X4.4594Y-4.6461
X4.5362Y-3.4354
X4.5362Y-4.0354
X4.5508Y-4.2327
X4.5508Y-4.5327
X4.6362Y-3.4354
X4.6362Y-4.0354
X4.6508Y-4.2327
X4.6508Y-4.5327
X4.7362Y-3.4354
X4.7362Y-4.0354
X4.8362Y-3.4354
X4.8362Y-4.0354
X4.9362Y-3.4354
X4.9362Y-4.0354
X5.0362Y-3.4354
X5.0362Y-4.0354
X5.1362Y-3.4354
X5.1362Y-4.0354
X5.2362Y-3.4354
X5.2362Y-4.0354
X5.2362Y-4.1831
X5.4331Y-4.1831
X5.6594Y-4.0258
X5.6594Y-4.2227
X6.1417Y-4.685
X6.3386Y-4.685
X6.624Y-3.0807
X6.624Y-3.2776
X6.624Y-3.3795
X6.624Y-3.7795
X6.624Y-3.9043
X6.624Y-4.3043
T3
X5.0264Y-4.5161
X5.0264Y-4.6161
X5.1264Y-4.5161
X5.1264Y-4.6161
X5.2264Y-4.5161
X5.2264Y-4.6161
X5.3264Y-4.5161
X5.3264Y-4.6161
X5.4264Y-4.5161
X5.4264Y-4.6161
M30
