%TF.GenerationSoftware,KiCad,Pcbnew,8.0.9-8.0.9-0~ubuntu24.04.1*%
%TF.CreationDate,2025-05-21T20:13:59-04:00*%
%TF.ProjectId,open_game_module,6f70656e-5f67-4616-9d65-5f6d6f64756c,rev?*%
%TF.SameCoordinates,Original*%
%TF.FileFunction,Soldermask,Bot*%
%TF.FilePolarity,Negative*%
%FSLAX46Y46*%
G04 Gerber Fmt 4.6, Leading zero omitted, Abs format (unit mm)*
G04 Created by KiCad (PCBNEW 8.0.9-8.0.9-0~ubuntu24.04.1) date 2025-05-21 20:13:59*
%MOMM*%
%LPD*%
G01*
G04 APERTURE LIST*
%ADD10C,0.100000*%
%ADD11R,1.700000X1.700000*%
%ADD12O,1.700000X1.700000*%
%ADD13C,1.600000*%
%ADD14R,1.600000X1.600000*%
%ADD15O,1.600000X1.600000*%
%ADD16R,1.524000X9.906000*%
%ADD17R,2.032000X9.906000*%
%ADD18R,1.778000X9.906000*%
%ADD19C,2.700000*%
G04 APERTURE END LIST*
%TO.C,J1*%
D10*
X92465000Y-66615000D02*
X170697000Y-66615000D01*
X170697000Y-76775000D01*
X92465000Y-76775000D01*
X92465000Y-66615000D01*
G36*
X92465000Y-66615000D02*
G01*
X170697000Y-66615000D01*
X170697000Y-76775000D01*
X92465000Y-76775000D01*
X92465000Y-66615000D01*
G37*
%TD*%
D11*
%TO.C,J2*%
X137830000Y-114710000D03*
D12*
X137830000Y-117250000D03*
X135290000Y-114710000D03*
X135290000Y-117250000D03*
X132750000Y-114710000D03*
X132750000Y-117250000D03*
X130210000Y-114710000D03*
X130210000Y-117250000D03*
X127670000Y-114710000D03*
X127670000Y-117250000D03*
%TD*%
D13*
%TO.C,C1*%
X133000000Y-106250000D03*
X138000000Y-106250000D03*
%TD*%
%TO.C,C2*%
X143750000Y-107256250D03*
X143750000Y-102256250D03*
%TD*%
D14*
%TO.C,U3*%
X133000000Y-87260000D03*
D15*
X130460000Y-87260000D03*
X127920000Y-87260000D03*
X125380000Y-87260000D03*
X122840000Y-87260000D03*
X120300000Y-87260000D03*
X117760000Y-87260000D03*
X115220000Y-87260000D03*
X112680000Y-87260000D03*
X110140000Y-87260000D03*
X107600000Y-87260000D03*
X105060000Y-87260000D03*
X102520000Y-87260000D03*
X99980000Y-87260000D03*
X99980000Y-102500000D03*
X102520000Y-102500000D03*
X105060000Y-102500000D03*
X107600000Y-102500000D03*
X110140000Y-102500000D03*
X112680000Y-102500000D03*
X115220000Y-102500000D03*
X117760000Y-102500000D03*
X120300000Y-102500000D03*
X122840000Y-102500000D03*
X125380000Y-102500000D03*
X127920000Y-102500000D03*
X130460000Y-102500000D03*
X133000000Y-102500000D03*
%TD*%
D13*
%TO.C,C3*%
X156000000Y-119000000D03*
X161000000Y-119000000D03*
%TD*%
D14*
%TO.C,U2*%
X100350000Y-115130000D03*
D15*
X102890000Y-115130000D03*
X105430000Y-115130000D03*
X107970000Y-115130000D03*
X110510000Y-115130000D03*
X113050000Y-115130000D03*
X115590000Y-115130000D03*
X118130000Y-115130000D03*
X118130000Y-107510000D03*
X115590000Y-107510000D03*
X113050000Y-107510000D03*
X110510000Y-107510000D03*
X107970000Y-107510000D03*
X105430000Y-107510000D03*
X102890000Y-107510000D03*
X100350000Y-107510000D03*
%TD*%
D16*
%TO.C,J1*%
X168411000Y-71568000D03*
X165871000Y-71568000D03*
X163331000Y-71568000D03*
X160791000Y-71568000D03*
X158251000Y-71568000D03*
X155711000Y-71568000D03*
X153171000Y-71568000D03*
X150631000Y-71568000D03*
X148091000Y-71568000D03*
X145551000Y-71568000D03*
X143011000Y-71568000D03*
X140471000Y-71568000D03*
X137931000Y-71568000D03*
X135391000Y-71568000D03*
X132851000Y-71568000D03*
X130311000Y-71568000D03*
X127771000Y-71568000D03*
X125231000Y-71568000D03*
X122691000Y-71568000D03*
X120151000Y-71568000D03*
X117611000Y-71568000D03*
X115071000Y-71568000D03*
X112531000Y-71568000D03*
X109991000Y-71568000D03*
X107451000Y-71568000D03*
X104911000Y-71568000D03*
X102371000Y-71568000D03*
D17*
X99577000Y-71568000D03*
D18*
X97672000Y-71568000D03*
D16*
X94751000Y-71568000D03*
%TD*%
D19*
%TO.C,H1*%
X96250000Y-121250000D03*
%TD*%
D13*
%TO.C,C4*%
X108270000Y-118010000D03*
X113270000Y-118010000D03*
%TD*%
%TO.C,R6*%
X168250000Y-96000000D03*
D15*
X168250000Y-85840000D03*
%TD*%
D19*
%TO.C,H2*%
X166250000Y-121250000D03*
%TD*%
D13*
%TO.C,R5*%
X168250000Y-99170000D03*
D15*
X168250000Y-109330000D03*
%TD*%
M02*
