%TF.GenerationSoftware,KiCad,Pcbnew,8.0.9-8.0.9-0~ubuntu24.04.1*%
%TF.CreationDate,2025-06-01T20:33:09-04:00*%
%TF.ProjectId,open_game_module,6f70656e-5f67-4616-9d65-5f6d6f64756c,rev?*%
%TF.SameCoordinates,Original*%
%TF.FileFunction,Copper,L2,Bot*%
%TF.FilePolarity,Positive*%
%FSLAX46Y46*%
G04 Gerber Fmt 4.6, Leading zero omitted, Abs format (unit mm)*
G04 Created by KiCad (PCBNEW 8.0.9-8.0.9-0~ubuntu24.04.1) date 2025-06-01 20:33:09*
%MOMM*%
%LPD*%
G01*
G04 APERTURE LIST*
%TA.AperFunction,ComponentPad*%
%ADD10R,1.700000X1.700000*%
%TD*%
%TA.AperFunction,ComponentPad*%
%ADD11O,1.700000X1.700000*%
%TD*%
%TA.AperFunction,ComponentPad*%
%ADD12C,1.600000*%
%TD*%
%TA.AperFunction,ComponentPad*%
%ADD13R,1.600000X1.600000*%
%TD*%
%TA.AperFunction,ComponentPad*%
%ADD14O,1.600000X1.600000*%
%TD*%
%TA.AperFunction,ConnectorPad*%
%ADD15R,1.524000X9.906000*%
%TD*%
%TA.AperFunction,ConnectorPad*%
%ADD16R,2.032000X9.906000*%
%TD*%
%TA.AperFunction,ConnectorPad*%
%ADD17R,1.778000X9.906000*%
%TD*%
%TA.AperFunction,ViaPad*%
%ADD18C,1.168400*%
%TD*%
%TA.AperFunction,Conductor*%
%ADD19C,0.254000*%
%TD*%
G04 APERTURE END LIST*
D10*
%TO.P,J2,1,Pin_1*%
%TO.N,/TCK*%
X137830000Y-114710000D03*
D11*
%TO.P,J2,2,Pin_2*%
%TO.N,GNDD*%
X137830000Y-117250000D03*
%TO.P,J2,3,Pin_3*%
%TO.N,/TDO*%
X135290000Y-114710000D03*
%TO.P,J2,4,Pin_4*%
%TO.N,+5V*%
X135290000Y-117250000D03*
%TO.P,J2,5,Pin_5*%
%TO.N,/TMS*%
X132750000Y-114710000D03*
%TO.P,J2,6,Pin_6*%
%TO.N,unconnected-(J2-Pin_6-Pad6)*%
X132750000Y-117250000D03*
%TO.P,J2,7,Pin_7*%
%TO.N,unconnected-(J2-Pin_7-Pad7)*%
X130210000Y-114710000D03*
%TO.P,J2,8,Pin_8*%
%TO.N,unconnected-(J2-Pin_8-Pad8)*%
X130210000Y-117250000D03*
%TO.P,J2,9,Pin_9*%
%TO.N,/TDI*%
X127670000Y-114710000D03*
%TO.P,J2,10,Pin_10*%
%TO.N,GNDD*%
X127670000Y-117250000D03*
%TD*%
D12*
%TO.P,C1,1*%
%TO.N,+5V*%
X133000000Y-106250000D03*
%TO.P,C1,2*%
%TO.N,GNDD*%
X138000000Y-106250000D03*
%TD*%
%TO.P,C2,1*%
%TO.N,+5V*%
X143750000Y-107256250D03*
%TO.P,C2,2*%
%TO.N,GNDD*%
X143750000Y-102256250D03*
%TD*%
D13*
%TO.P,U3,1,A14*%
%TO.N,/A14*%
X133000000Y-87260000D03*
D14*
%TO.P,U3,2,A12*%
%TO.N,/A12*%
X130460000Y-87260000D03*
%TO.P,U3,3,A7*%
%TO.N,/A7*%
X127920000Y-87260000D03*
%TO.P,U3,4,A6*%
%TO.N,/A6*%
X125380000Y-87260000D03*
%TO.P,U3,5,A5*%
%TO.N,/A5*%
X122840000Y-87260000D03*
%TO.P,U3,6,A4*%
%TO.N,/A4*%
X120300000Y-87260000D03*
%TO.P,U3,7,A3*%
%TO.N,/A3*%
X117760000Y-87260000D03*
%TO.P,U3,8,A2*%
%TO.N,/A2*%
X115220000Y-87260000D03*
%TO.P,U3,9,A1*%
%TO.N,/A1*%
X112680000Y-87260000D03*
%TO.P,U3,10,A0*%
%TO.N,/A0*%
X110140000Y-87260000D03*
%TO.P,U3,11,Q0*%
%TO.N,/D0*%
X107600000Y-87260000D03*
%TO.P,U3,12,Q1*%
%TO.N,/D1*%
X105060000Y-87260000D03*
%TO.P,U3,13,Q2*%
%TO.N,/D2*%
X102520000Y-87260000D03*
%TO.P,U3,14,GND*%
%TO.N,GNDD*%
X99980000Y-87260000D03*
%TO.P,U3,15,Q3*%
%TO.N,/D3*%
X99980000Y-102500000D03*
%TO.P,U3,16,Q4*%
%TO.N,/D4*%
X102520000Y-102500000D03*
%TO.P,U3,17,Q5*%
%TO.N,/D5*%
X105060000Y-102500000D03*
%TO.P,U3,18,Q6*%
%TO.N,/D6*%
X107600000Y-102500000D03*
%TO.P,U3,19,Q7*%
%TO.N,/D7*%
X110140000Y-102500000D03*
%TO.P,U3,20,~{CS}*%
%TO.N,/~{RAM_CS}*%
X112680000Y-102500000D03*
%TO.P,U3,21,A10*%
%TO.N,/A10*%
X115220000Y-102500000D03*
%TO.P,U3,22,~{OE}*%
%TO.N,/~{RAM_OE}*%
X117760000Y-102500000D03*
%TO.P,U3,23,A11*%
%TO.N,/A11*%
X120300000Y-102500000D03*
%TO.P,U3,24,A9*%
%TO.N,/A9*%
X122840000Y-102500000D03*
%TO.P,U3,25,A8*%
%TO.N,/A8*%
X125380000Y-102500000D03*
%TO.P,U3,26,A13*%
%TO.N,/A13*%
X127920000Y-102500000D03*
%TO.P,U3,27,~{WE}*%
%TO.N,/~{WR}*%
X130460000Y-102500000D03*
%TO.P,U3,28,VCC*%
%TO.N,+5V*%
X133000000Y-102500000D03*
%TD*%
D12*
%TO.P,C3,1*%
%TO.N,+5V*%
X156000000Y-119000000D03*
%TO.P,C3,2*%
%TO.N,GNDD*%
X161000000Y-119000000D03*
%TD*%
D13*
%TO.P,U2,1,~{WR}*%
%TO.N,/~{AY_CS}*%
X100350000Y-115130000D03*
D14*
%TO.P,U2,2,~{CS}*%
X102890000Y-115130000D03*
%TO.P,U2,3,A0*%
%TO.N,/AY_AS*%
X105430000Y-115130000D03*
%TO.P,U2,4,VDD*%
%TO.N,+5V*%
X107970000Y-115130000D03*
%TO.P,U2,5,OUT*%
%TO.N,Net-(U2-OUT)*%
X110510000Y-115130000D03*
%TO.P,U2,6,GND*%
%TO.N,GNDD*%
X113050000Y-115130000D03*
%TO.P,U2,7,CLK*%
%TO.N,/~{CLK}*%
X115590000Y-115130000D03*
%TO.P,U2,8,~{RESET}*%
%TO.N,/~{RESET}*%
X118130000Y-115130000D03*
%TO.P,U2,9,D7*%
%TO.N,/D7*%
X118130000Y-107510000D03*
%TO.P,U2,10,D6*%
%TO.N,/D6*%
X115590000Y-107510000D03*
%TO.P,U2,11,D5*%
%TO.N,/D5*%
X113050000Y-107510000D03*
%TO.P,U2,12,D4*%
%TO.N,/D4*%
X110510000Y-107510000D03*
%TO.P,U2,13,D3*%
%TO.N,/D3*%
X107970000Y-107510000D03*
%TO.P,U2,14,D2*%
%TO.N,/D2*%
X105430000Y-107510000D03*
%TO.P,U2,15,D1*%
%TO.N,/D1*%
X102890000Y-107510000D03*
%TO.P,U2,16,D0*%
%TO.N,/D0*%
X100350000Y-107510000D03*
%TD*%
D15*
%TO.P,J1,31,Pin_31*%
%TO.N,Net-(J1-Pin_31)*%
X168411000Y-71568000D03*
%TO.P,J1,32,Pin_32*%
%TO.N,unconnected-(J1-Pin_32-Pad32)*%
X165871000Y-71568000D03*
%TO.P,J1,33,Pin_33*%
%TO.N,unconnected-(J1-Pin_33-Pad33)*%
X163331000Y-71568000D03*
%TO.P,J1,34,Pin_34*%
%TO.N,unconnected-(J1-Pin_34-Pad34)*%
X160791000Y-71568000D03*
%TO.P,J1,35,Pin_35*%
%TO.N,unconnected-(J1-Pin_35-Pad35)*%
X158251000Y-71568000D03*
%TO.P,J1,36,Pin_36*%
%TO.N,unconnected-(J1-Pin_36-Pad36)*%
X155711000Y-71568000D03*
%TO.P,J1,37,Pin_37*%
%TO.N,/A11*%
X153171000Y-71568000D03*
%TO.P,J1,38,Pin_38*%
%TO.N,/A12*%
X150631000Y-71568000D03*
%TO.P,J1,39,Pin_39*%
%TO.N,unconnected-(J1-Pin_39-Pad39)*%
X148091000Y-71568000D03*
%TO.P,J1,40,Pin_40*%
%TO.N,unconnected-(J1-Pin_40-Pad40)*%
X145551000Y-71568000D03*
%TO.P,J1,41,Pin_41*%
%TO.N,unconnected-(J1-Pin_41-Pad41)*%
X143011000Y-71568000D03*
%TO.P,J1,42,Pin_42*%
%TO.N,unconnected-(J1-Pin_42-Pad42)*%
X140471000Y-71568000D03*
%TO.P,J1,43,Pin_43*%
%TO.N,/A15*%
X137931000Y-71568000D03*
%TO.P,J1,44,Pin_44*%
%TO.N,/A3*%
X135391000Y-71568000D03*
%TO.P,J1,45,Pin_45*%
%TO.N,/~{CLK}*%
X132851000Y-71568000D03*
%TO.P,J1,46,Pin_46*%
%TO.N,/D2*%
X130311000Y-71568000D03*
%TO.P,J1,47,Pin_47*%
%TO.N,/A0*%
X127771000Y-71568000D03*
%TO.P,J1,48,Pin_48*%
%TO.N,/D5*%
X125231000Y-71568000D03*
%TO.P,J1,49,Pin_49*%
%TO.N,/~{RFSH}*%
X122691000Y-71568000D03*
%TO.P,J1,50,Pin_50*%
%TO.N,unconnected-(J1-Pin_50-Pad50)*%
X120151000Y-71568000D03*
%TO.P,J1,51,Pin_51*%
%TO.N,unconnected-(J1-Pin_51-Pad51)*%
X117611000Y-71568000D03*
%TO.P,J1,52,Pin_52*%
%TO.N,unconnected-(J1-Pin_52-Pad52)*%
X115071000Y-71568000D03*
%TO.P,J1,53,Pin_53*%
%TO.N,/~{RD}*%
X112531000Y-71568000D03*
%TO.P,J1,54,Pin_54*%
%TO.N,/~{MREQ}*%
X109991000Y-71568000D03*
%TO.P,J1,55,Pin_55*%
%TO.N,/~{IORQ}*%
X107451000Y-71568000D03*
%TO.P,J1,56,Pin_56*%
%TO.N,unconnected-(J1-Pin_56-Pad56)*%
X104911000Y-71568000D03*
%TO.P,J1,57,Pin_57*%
%TO.N,unconnected-(J1-Pin_57-Pad57)*%
X102371000Y-71568000D03*
D16*
%TO.P,J1,58,Pin_58*%
%TO.N,+5V*%
X99577000Y-71568000D03*
D17*
%TO.P,J1,59,Pin_59*%
X97672000Y-71568000D03*
D15*
%TO.P,J1,60,Pin_60*%
%TO.N,unconnected-(J1-Pin_60-Pad60)*%
X94751000Y-71568000D03*
%TD*%
D12*
%TO.P,C4,1*%
%TO.N,+5V*%
X108270000Y-118010000D03*
%TO.P,C4,2*%
%TO.N,GNDD*%
X113270000Y-118010000D03*
%TD*%
%TO.P,R6,1*%
%TO.N,GNDD*%
X168250000Y-96000000D03*
D14*
%TO.P,R6,2*%
%TO.N,Net-(J1-Pin_31)*%
X168250000Y-85840000D03*
%TD*%
D12*
%TO.P,R5,1*%
%TO.N,Net-(J1-Pin_31)*%
X168250000Y-99170000D03*
D14*
%TO.P,R5,2*%
%TO.N,Net-(U2-OUT)*%
X168250000Y-109330000D03*
%TD*%
D18*
%TO.N,GNDD*%
X154750000Y-102500000D03*
X116500000Y-99500000D03*
X159250000Y-104500000D03*
X93625000Y-77875000D03*
X101000000Y-112250000D03*
X154500000Y-109250000D03*
X159500000Y-93500000D03*
X152000000Y-119000000D03*
X151750000Y-102500000D03*
X98250000Y-95500000D03*
%TO.N,/A6*%
X146500000Y-82527138D03*
%TO.N,/D4*%
X161690569Y-100750000D03*
X135436413Y-97316322D03*
%TO.N,/A4*%
X142156579Y-82172579D03*
%TO.N,/D0*%
X123000000Y-80532000D03*
%TO.N,/A14*%
X100915500Y-84818500D03*
%TO.N,/~{WR}*%
X151000000Y-109750000D03*
X98139896Y-83139896D03*
X112500000Y-79750000D03*
X146250000Y-111112250D03*
%TO.N,/~{CLK}*%
X155000000Y-90984000D03*
X157500000Y-93500000D03*
X118250000Y-84425200D03*
%TO.N,/A15*%
X152750000Y-93250000D03*
X138000000Y-80484000D03*
X156281159Y-88266000D03*
%TO.N,/D1*%
X120208233Y-80532000D03*
%TO.N,/D2*%
X129500000Y-80250000D03*
%TO.N,/~{RFSH}*%
X97886448Y-84886448D03*
%TO.N,/~{IORQ}*%
X95687054Y-115426636D03*
%TO.N,/~{MREQ}*%
X96389800Y-114131849D03*
%TO.N,/A5*%
X146500000Y-81054388D03*
%TO.N,/A8*%
X158251000Y-78750000D03*
%TO.N,/A9*%
X160791000Y-78750000D03*
%TO.N,/D6*%
X101000000Y-93000000D03*
X137400584Y-100750000D03*
X161750000Y-105000000D03*
%TO.N,/A10*%
X163331000Y-78750000D03*
%TO.N,/A1*%
X131500000Y-80250000D03*
%TO.N,/A13*%
X136500000Y-89332401D03*
X143250000Y-86074800D03*
%TO.N,/D3*%
X135406579Y-95843421D03*
X159843421Y-98156579D03*
%TO.N,/~{RD}*%
X96948600Y-112768743D03*
%TO.N,/~{RESET}*%
X123750000Y-78500000D03*
%TO.N,/D5*%
X137400584Y-99187984D03*
X161750000Y-103500000D03*
%TO.N,/D7*%
X98625000Y-88875000D03*
X162250000Y-107556250D03*
%TO.N,/A7*%
X146500000Y-84000000D03*
%TO.N,/A2*%
X140973425Y-81294813D03*
%TO.N,/TCK*%
X166000000Y-106250000D03*
%TO.N,/TDO*%
X162120479Y-98127144D03*
%TO.N,/TDI*%
X150500000Y-107500000D03*
%TO.N,/TMS*%
X151541712Y-106458288D03*
%TO.N,/AY_AS*%
X157057781Y-107151521D03*
%TO.N,/~{RAM_OE}*%
X145234000Y-115223203D03*
X158313750Y-115250000D03*
%TO.N,/~{RAM_CS}*%
X145234000Y-116696406D03*
X159833750Y-116750000D03*
%TO.N,/~{AY_CS}*%
X158887372Y-107151521D03*
%TD*%
D19*
%TO.N,+5V*%
X94585421Y-82886741D02*
X95787162Y-81685000D01*
X130750000Y-108500000D02*
X126250000Y-108500000D01*
X126500000Y-108500000D02*
X124000000Y-108500000D01*
X134008200Y-118531800D02*
X127031800Y-118531800D01*
X94585421Y-116585421D02*
X94585421Y-82886741D01*
X97672000Y-79800163D02*
X95787162Y-81685000D01*
X124000000Y-108500000D02*
X120632400Y-111867600D01*
X108030000Y-118250000D02*
X96250000Y-118250000D01*
X142756250Y-107256250D02*
X140518200Y-105018200D01*
X99577000Y-77895162D02*
X99577000Y-71568000D01*
X140518200Y-105018200D02*
X136602588Y-105018200D01*
X97672000Y-71568000D02*
X97672000Y-79800163D01*
X120632400Y-111867600D02*
X110101030Y-111867600D01*
X95787162Y-81685000D02*
X99577000Y-77895162D01*
X107970000Y-113998630D02*
X107970000Y-115130000D01*
X96250000Y-118250000D02*
X94585421Y-116585421D01*
X135370788Y-106250000D02*
X133000000Y-106250000D01*
X127031800Y-118531800D02*
X125250000Y-116750000D01*
X125250000Y-116750000D02*
X125250000Y-108500000D01*
X135290000Y-117250000D02*
X134008200Y-118531800D01*
X110101030Y-111867600D02*
X107970000Y-113998630D01*
X143750000Y-107256250D02*
X142756250Y-107256250D01*
X136602588Y-105018200D02*
X135370788Y-106250000D01*
X108270000Y-118010000D02*
X108030000Y-118250000D01*
X133000000Y-106250000D02*
X130750000Y-108500000D01*
%TO.N,Net-(J1-Pin_31)*%
X168250000Y-99170000D02*
X167018200Y-97938200D01*
X168250000Y-85840000D02*
X168250000Y-71729000D01*
X167018200Y-97938200D02*
X167018200Y-87071800D01*
X168250000Y-71729000D02*
X168411000Y-71568000D01*
X167018200Y-87071800D02*
X168250000Y-85840000D01*
%TO.N,/A6*%
X146531675Y-82527138D02*
X145133613Y-83925200D01*
X135909116Y-84674400D02*
X131465076Y-84674400D01*
X136658316Y-83925200D02*
X135909116Y-84674400D01*
X130698276Y-85441200D02*
X128948538Y-85441200D01*
X128389738Y-86000000D02*
X126640000Y-86000000D01*
X145133613Y-83925200D02*
X136658316Y-83925200D01*
X126640000Y-86000000D02*
X125380000Y-87260000D01*
X128948538Y-85441200D02*
X128389738Y-86000000D01*
X131465076Y-84674400D02*
X130698276Y-85441200D01*
%TO.N,/D4*%
X157000000Y-96750000D02*
X136002735Y-96750000D01*
X110510000Y-107510000D02*
X110510000Y-106750000D01*
X136002735Y-96750000D02*
X135436413Y-97316322D01*
X161000000Y-100750000D02*
X157000000Y-96750000D01*
X108887600Y-105127600D02*
X105147600Y-105127600D01*
X105147600Y-105127600D02*
X102520000Y-102500000D01*
X110510000Y-106750000D02*
X108887600Y-105127600D01*
X161750000Y-100750000D02*
X161000000Y-100750000D01*
%TO.N,/A4*%
X141521558Y-82807600D02*
X136195392Y-82807600D01*
X123367600Y-84882400D02*
X120990000Y-87260000D01*
X142156579Y-82172579D02*
X141521558Y-82807600D01*
X130235350Y-84323600D02*
X128485613Y-84323600D01*
X136195392Y-82807600D02*
X135446192Y-83556800D01*
X127926813Y-84882400D02*
X123367600Y-84882400D01*
X128485613Y-84323600D02*
X127926813Y-84882400D01*
X120990000Y-87260000D02*
X120300000Y-87260000D01*
X135446192Y-83556800D02*
X131002150Y-83556800D01*
X131002150Y-83556800D02*
X130235350Y-84323600D01*
%TO.N,/D0*%
X109949400Y-84910600D02*
X107600000Y-87260000D01*
X121508426Y-82000000D02*
X116161049Y-82000000D01*
X122976426Y-80532000D02*
X121508426Y-82000000D01*
X113250449Y-84910600D02*
X109949400Y-84910600D01*
X123000000Y-80532000D02*
X122976426Y-80532000D01*
X116161049Y-82000000D02*
X113250449Y-84910600D01*
%TO.N,/A14*%
X101211800Y-86749771D02*
X101211800Y-87770229D01*
X101211800Y-87770229D02*
X102492171Y-89050600D01*
X100915500Y-84818500D02*
X100915500Y-86453471D01*
X100915500Y-86453471D02*
X101211800Y-86749771D01*
X102492171Y-89050600D02*
X131209400Y-89050600D01*
X131209400Y-89050600D02*
X133000000Y-87260000D01*
%TO.N,/A12*%
X150500000Y-71699000D02*
X150631000Y-71568000D01*
X147862041Y-85058800D02*
X150631000Y-82289841D01*
X137105241Y-85058800D02*
X147862041Y-85058800D01*
X130460000Y-87260000D02*
X131928000Y-85792000D01*
X150631000Y-82289841D02*
X150631000Y-71568000D01*
X131928000Y-85792000D02*
X136372041Y-85792000D01*
X136372041Y-85792000D02*
X137105241Y-85058800D01*
%TO.N,/~{WR}*%
X146787450Y-110574800D02*
X149175200Y-110574800D01*
X98139896Y-83139896D02*
X99264992Y-82014800D01*
X110235200Y-82014800D02*
X112500000Y-79750000D01*
X146250000Y-111112250D02*
X146787450Y-110574800D01*
X99264992Y-82014800D02*
X110235200Y-82014800D01*
X150000000Y-109750000D02*
X151000000Y-109750000D01*
X149175200Y-110574800D02*
X150000000Y-109750000D01*
%TO.N,/A0*%
X122475088Y-81823600D02*
X123426400Y-81823600D01*
X123426400Y-81823600D02*
X127771000Y-77479000D01*
X113481912Y-85469400D02*
X113809249Y-85142062D01*
X113809249Y-85142062D02*
X116260111Y-82691200D01*
X116260111Y-82691200D02*
X121607488Y-82691200D01*
X127771000Y-77479000D02*
X127771000Y-71568000D01*
X121607488Y-82691200D02*
X122475088Y-81823600D01*
X111930600Y-85469400D02*
X113481912Y-85469400D01*
X110140000Y-87260000D02*
X111930600Y-85469400D01*
%TO.N,/A11*%
X153171000Y-83579000D02*
X145693069Y-91056931D01*
X145693069Y-91056931D02*
X130875732Y-91056931D01*
X120300000Y-101632663D02*
X120300000Y-102500000D01*
X130875732Y-91056931D02*
X120300000Y-101632663D01*
X153171000Y-71568000D02*
X153171000Y-83579000D01*
%TO.N,/A3*%
X127478688Y-83750000D02*
X128022688Y-83206000D01*
X129772426Y-83206000D02*
X130570358Y-82408068D01*
X122919474Y-83750000D02*
X127478688Y-83750000D01*
X135391000Y-81859000D02*
X135391000Y-71568000D01*
X121200074Y-85469400D02*
X122919474Y-83750000D01*
X119550600Y-85469400D02*
X121200074Y-85469400D01*
X128022688Y-83206000D02*
X129772426Y-83206000D01*
X134841932Y-82408068D02*
X135391000Y-81859000D01*
X117760000Y-87260000D02*
X119550600Y-85469400D01*
X130570358Y-82408068D02*
X134841932Y-82408068D01*
%TO.N,/~{CLK}*%
X122688012Y-83191200D02*
X127247226Y-83191200D01*
X118250000Y-84425200D02*
X118335699Y-84339501D01*
X127247226Y-83191200D02*
X127791226Y-82647200D01*
X129362145Y-82647200D02*
X130379673Y-81629672D01*
X155500000Y-91500000D02*
X157500000Y-93500000D01*
X118335699Y-84339501D02*
X121539711Y-84339501D01*
X132851000Y-80649000D02*
X132851000Y-71568000D01*
X130379673Y-81629672D02*
X131870328Y-81629672D01*
X121539711Y-84339501D02*
X122688012Y-83191200D01*
X131870328Y-81629672D02*
X132851000Y-80649000D01*
X127791226Y-82647200D02*
X129362145Y-82647200D01*
X155500000Y-91484000D02*
X155500000Y-91500000D01*
X155000000Y-90984000D02*
X155500000Y-91484000D01*
%TO.N,/A15*%
X138000000Y-71637000D02*
X138000000Y-80500000D01*
X138000000Y-80500000D02*
X138000000Y-80484000D01*
X156281159Y-88266000D02*
X152750000Y-91797159D01*
X137931000Y-71568000D02*
X138000000Y-71637000D01*
X152750000Y-91797159D02*
X152750000Y-93250000D01*
%TO.N,/D1*%
X113120787Y-84250000D02*
X108070000Y-84250000D01*
X108070000Y-84250000D02*
X105060000Y-87260000D01*
X116120787Y-81250000D02*
X113120787Y-84250000D01*
X119490233Y-81250000D02*
X116120787Y-81250000D01*
X120208233Y-80532000D02*
X119490233Y-81250000D01*
%TO.N,/D2*%
X129500000Y-80250000D02*
X130250000Y-79500000D01*
X130250000Y-71629000D02*
X130311000Y-71568000D01*
X130250000Y-79500000D02*
X130250000Y-71629000D01*
%TO.N,/~{RFSH}*%
X100143034Y-82573600D02*
X112426400Y-82573600D01*
X122250000Y-77750000D02*
X122691000Y-77309000D01*
X112426400Y-82573600D02*
X117250000Y-77750000D01*
X97886448Y-84886448D02*
X97886448Y-84830186D01*
X122691000Y-77309000D02*
X122691000Y-71568000D01*
X97886448Y-84830186D02*
X100143034Y-82573600D01*
X117250000Y-77750000D02*
X122250000Y-77750000D01*
%TO.N,/~{IORQ}*%
X107451000Y-78557738D02*
X107451000Y-71568000D01*
X97512426Y-80750000D02*
X97924026Y-80338400D01*
X97924026Y-80338400D02*
X105670338Y-80338400D01*
X95250000Y-114989582D02*
X95250000Y-83012425D01*
X95687054Y-115426636D02*
X95250000Y-114989582D01*
X105670338Y-80338400D02*
X107451000Y-78557738D01*
X95250000Y-83012425D02*
X97512426Y-80750000D01*
%TO.N,/~{MREQ}*%
X107102800Y-80897200D02*
X109991000Y-78009000D01*
X109991000Y-78009000D02*
X109991000Y-71568000D01*
X98155488Y-80897200D02*
X107102800Y-80897200D01*
X95932600Y-113674649D02*
X95932600Y-83120088D01*
X96389800Y-114131849D02*
X95932600Y-113674649D01*
X95932600Y-83120088D02*
X98155488Y-80897200D01*
%TO.N,/A5*%
X130466813Y-84882400D02*
X128717076Y-84882400D01*
X124658800Y-85441200D02*
X122840000Y-87260000D01*
X146445612Y-81054388D02*
X144133600Y-83366400D01*
X146495149Y-81054388D02*
X146445612Y-81054388D01*
X131233613Y-84115600D02*
X130466813Y-84882400D01*
X136426854Y-83366400D02*
X135677654Y-84115600D01*
X128158276Y-85441200D02*
X124658800Y-85441200D01*
X144133600Y-83366400D02*
X136426854Y-83366400D01*
X128717076Y-84882400D02*
X128158276Y-85441200D01*
X135677654Y-84115600D02*
X131233613Y-84115600D01*
%TO.N,/A8*%
X158251000Y-78750000D02*
X158251000Y-79289262D01*
X122329771Y-103731800D02*
X124148200Y-103731800D01*
X158251000Y-79289262D02*
X145924531Y-91615731D01*
X124148200Y-103731800D02*
X125380000Y-102500000D01*
X121608200Y-103010229D02*
X122329771Y-103731800D01*
X131344006Y-91615731D02*
X121608200Y-101351537D01*
X145924531Y-91615731D02*
X131344006Y-91615731D01*
X121608200Y-101351537D02*
X121608200Y-103010229D01*
%TO.N,/A9*%
X160791000Y-78750000D02*
X160791000Y-79459000D01*
X160791000Y-79459000D02*
X148075469Y-92174531D01*
X148075469Y-92174531D02*
X131575469Y-92174531D01*
X122840000Y-100910000D02*
X122840000Y-102500000D01*
X131575469Y-92174531D02*
X122840000Y-100910000D01*
%TO.N,/D6*%
X101000000Y-93000000D02*
X101000000Y-94000000D01*
X107750000Y-102350000D02*
X107600000Y-102500000D01*
X138150584Y-100000000D02*
X156750000Y-100000000D01*
X156750000Y-100000000D02*
X161750000Y-105000000D01*
X137400584Y-100750000D02*
X138150584Y-100000000D01*
X115590000Y-107510000D02*
X112898800Y-104818800D01*
X111668537Y-104818800D02*
X110859737Y-104010000D01*
X109110000Y-104010000D02*
X107600000Y-102500000D01*
X110859737Y-104010000D02*
X109110000Y-104010000D01*
X101000000Y-94000000D02*
X107750000Y-100750000D01*
X112898800Y-104818800D02*
X111668537Y-104818800D01*
X107750000Y-100750000D02*
X107750000Y-102350000D01*
%TO.N,/A10*%
X127312629Y-104849400D02*
X117569400Y-104849400D01*
X163250000Y-78750000D02*
X149250000Y-92750000D01*
X129228200Y-102933829D02*
X127312629Y-104849400D01*
X117569400Y-104849400D02*
X115220000Y-102500000D01*
X149250000Y-92750000D02*
X134500000Y-92750000D01*
X163331000Y-78750000D02*
X163250000Y-78750000D01*
X134500000Y-92750000D02*
X129228200Y-98021800D01*
X129228200Y-98021800D02*
X129228200Y-102933829D01*
%TO.N,/A1*%
X116690000Y-83250000D02*
X112680000Y-87260000D01*
X130148211Y-81070872D02*
X129130683Y-82088400D01*
X121838950Y-83250000D02*
X116690000Y-83250000D01*
X130679128Y-81070872D02*
X130148211Y-81070872D01*
X129130683Y-82088400D02*
X127559763Y-82088400D01*
X127015763Y-82632400D02*
X122456550Y-82632400D01*
X131500000Y-80250000D02*
X130679128Y-81070872D01*
X122456550Y-82632400D02*
X121838950Y-83250000D01*
X127559763Y-82088400D02*
X127015763Y-82632400D01*
%TO.N,/A13*%
X120348571Y-104290600D02*
X126129400Y-104290600D01*
X130559840Y-90498131D02*
X119068200Y-101989771D01*
X136500000Y-89332401D02*
X141433599Y-89332401D01*
X119068200Y-101989771D02*
X119068200Y-103010229D01*
X141433599Y-89332401D02*
X143250000Y-87516000D01*
X119068200Y-103010229D02*
X120348571Y-104290600D01*
X143250000Y-87516000D02*
X143250000Y-86074800D01*
X135334270Y-90498131D02*
X130559840Y-90498131D01*
X126129400Y-104290600D02*
X127920000Y-102500000D01*
X136500000Y-89332401D02*
X135334270Y-90498131D01*
%TO.N,/D3*%
X106146400Y-105686400D02*
X103166400Y-105686400D01*
X159635609Y-97948767D02*
X159843421Y-98156579D01*
X135563158Y-96000000D02*
X135406579Y-95843421D01*
X107970000Y-107510000D02*
X106146400Y-105686400D01*
X103166400Y-105686400D02*
X99980000Y-102500000D01*
X157686842Y-96000000D02*
X135563158Y-96000000D01*
X159843421Y-98156579D02*
X157686842Y-96000000D01*
X159635609Y-97885609D02*
X159635609Y-97948767D01*
%TO.N,/~{RD}*%
X96491400Y-112311543D02*
X96491400Y-83351551D01*
X112531000Y-78219000D02*
X112531000Y-71568000D01*
X109294000Y-81456000D02*
X112531000Y-78219000D01*
X98386951Y-81456000D02*
X109294000Y-81456000D01*
X96491400Y-83351551D02*
X98386951Y-81456000D01*
X96948600Y-112768743D02*
X96491400Y-112311543D01*
%TO.N,/~{RESET}*%
X99000000Y-84506896D02*
X100374496Y-83132400D01*
X117290262Y-78500000D02*
X123750000Y-78500000D01*
X99118200Y-116361800D02*
X97964600Y-115208200D01*
X99000000Y-85209737D02*
X99000000Y-84506896D01*
X100374496Y-83132400D02*
X112657862Y-83132400D01*
X108480229Y-116361800D02*
X99118200Y-116361800D01*
X97964600Y-112329159D02*
X97050200Y-111414759D01*
X97964600Y-115208200D02*
X97964600Y-112329159D01*
X112657862Y-83132400D02*
X117290262Y-78500000D01*
X118130000Y-115130000D02*
X116250000Y-113250000D01*
X109201800Y-114619771D02*
X109201800Y-115640229D01*
X97050200Y-87159537D02*
X99000000Y-85209737D01*
X97050200Y-111414759D02*
X97050200Y-87159537D01*
X116250000Y-113250000D02*
X110571571Y-113250000D01*
X109201800Y-115640229D02*
X108480229Y-116361800D01*
X110571571Y-113250000D02*
X109201800Y-114619771D01*
%TO.N,/D5*%
X137614821Y-99402221D02*
X157652221Y-99402221D01*
X107128800Y-104568800D02*
X105060000Y-102500000D01*
X137224158Y-99187984D02*
X137400584Y-99187984D01*
X124234000Y-79516000D02*
X125231000Y-78519000D01*
X117064525Y-79516000D02*
X124234000Y-79516000D01*
X99558800Y-85441200D02*
X99558800Y-84738359D01*
X125231000Y-78519000D02*
X125231000Y-71568000D01*
X112889325Y-83691200D02*
X117064525Y-79516000D01*
X110328800Y-104568800D02*
X107128800Y-104568800D01*
X137400584Y-99187984D02*
X137614821Y-99402221D01*
X97609000Y-87391000D02*
X99558800Y-85441200D01*
X99558800Y-84738359D02*
X100605959Y-83691200D01*
X105060000Y-102500000D02*
X105060000Y-99310000D01*
X157652221Y-99402221D02*
X161750000Y-103500000D01*
X105060000Y-99310000D02*
X97609000Y-91859000D01*
X100605959Y-83691200D02*
X112889325Y-83691200D01*
X97609000Y-91859000D02*
X97609000Y-87391000D01*
X113050000Y-107290000D02*
X110328800Y-104568800D01*
X113050000Y-107510000D02*
X113050000Y-107290000D01*
%TO.N,/D7*%
X123305612Y-106823600D02*
X122629212Y-107500000D01*
X135908200Y-103341800D02*
X135500000Y-103750000D01*
X135500000Y-103750000D02*
X132169475Y-103750000D01*
X118140000Y-107500000D02*
X118130000Y-107510000D01*
X110140000Y-100390000D02*
X110140000Y-102500000D01*
X98625000Y-88875000D02*
X110140000Y-100390000D01*
X132169475Y-103750000D02*
X129095875Y-106823600D01*
X111900000Y-104260000D02*
X110140000Y-102500000D01*
X162250000Y-107556250D02*
X160806250Y-107556250D01*
X158813159Y-106000000D02*
X156563159Y-103750000D01*
X117760000Y-107510000D02*
X114510000Y-104260000D01*
X118130000Y-107510000D02*
X117760000Y-107510000D01*
X159250000Y-106000000D02*
X158813159Y-106000000D01*
X122629212Y-107500000D02*
X118140000Y-107500000D01*
X141620788Y-103750000D02*
X141212588Y-103341800D01*
X114510000Y-104260000D02*
X111900000Y-104260000D01*
X156563159Y-103750000D02*
X141620788Y-103750000D01*
X160806250Y-107556250D02*
X159250000Y-106000000D01*
X141212588Y-103341800D02*
X135908200Y-103341800D01*
X129095875Y-106823600D02*
X123305612Y-106823600D01*
%TO.N,/A7*%
X146016000Y-84484000D02*
X136889779Y-84484000D01*
X129180000Y-86000000D02*
X127920000Y-87260000D01*
X131696538Y-85233200D02*
X130929738Y-86000000D01*
X130929738Y-86000000D02*
X129180000Y-86000000D01*
X136889779Y-84484000D02*
X136140579Y-85233200D01*
X136140579Y-85233200D02*
X131696538Y-85233200D01*
X146500000Y-84000000D02*
X146016000Y-84484000D01*
%TO.N,/A2*%
X123136137Y-84323600D02*
X121431537Y-86028200D01*
X135963930Y-82248800D02*
X135245862Y-82966868D01*
X135245862Y-82966868D02*
X130801820Y-82966868D01*
X121431537Y-86028200D02*
X119789771Y-86028200D01*
X119068200Y-86749771D02*
X119068200Y-87770229D01*
X140973425Y-81294813D02*
X140019438Y-82248800D01*
X118346629Y-88491800D02*
X116451800Y-88491800D01*
X127695350Y-84323600D02*
X123136137Y-84323600D01*
X119068200Y-87770229D02*
X118346629Y-88491800D01*
X116451800Y-88491800D02*
X115220000Y-87260000D01*
X140019438Y-82248800D02*
X135963930Y-82248800D01*
X128254150Y-83764800D02*
X127695350Y-84323600D01*
X130003888Y-83764800D02*
X128254150Y-83764800D01*
X130801820Y-82966868D02*
X130003888Y-83764800D01*
X119789771Y-86028200D02*
X119068200Y-86749771D01*
%TO.N,/TCK*%
X137830000Y-114710000D02*
X139731200Y-112808800D01*
X139731200Y-112808800D02*
X163731462Y-112808800D01*
X166000000Y-110540262D02*
X166000000Y-106250000D01*
X163731462Y-112808800D02*
X166000000Y-110540262D01*
%TO.N,/TDO*%
X137750000Y-112250000D02*
X135290000Y-114710000D01*
X163500000Y-112250000D02*
X137750000Y-112250000D01*
X164984000Y-100984000D02*
X164984000Y-110766000D01*
X162127144Y-98127144D02*
X164984000Y-100984000D01*
X164984000Y-110766000D02*
X163500000Y-112250000D01*
X162120479Y-98127144D02*
X162127144Y-98127144D01*
%TO.N,/TDI*%
X127670000Y-114710000D02*
X132938800Y-109441200D01*
X145268538Y-109441200D02*
X147209738Y-107500000D01*
X132938800Y-109441200D02*
X145268538Y-109441200D01*
X147209738Y-107500000D02*
X150500000Y-107500000D01*
%TO.N,/TMS*%
X137460000Y-110000000D02*
X132750000Y-114710000D01*
X151541712Y-106458288D02*
X151541712Y-107895129D01*
X150920841Y-108516000D02*
X146984000Y-108516000D01*
X145500000Y-110000000D02*
X137460000Y-110000000D01*
X151541712Y-107895129D02*
X150920841Y-108516000D01*
X146984000Y-108516000D02*
X145500000Y-110000000D01*
%TO.N,Net-(U2-OUT)*%
X111741800Y-113898200D02*
X116107938Y-113898200D01*
X116107938Y-113898200D02*
X116898200Y-114688462D01*
X120250000Y-119090600D02*
X138409400Y-119090600D01*
X116898200Y-114688462D02*
X116898200Y-115738800D01*
X168250000Y-112250000D02*
X168250000Y-109330000D01*
X143292797Y-114207203D02*
X158707794Y-114207203D01*
X166250000Y-114250000D02*
X168250000Y-112250000D01*
X158750591Y-114250000D02*
X166250000Y-114250000D01*
X116898200Y-115738800D02*
X120250000Y-119090600D01*
X138409400Y-119090600D02*
X143292797Y-114207203D01*
X110510000Y-115130000D02*
X111741800Y-113898200D01*
X158707794Y-114207203D02*
X158750591Y-114250000D01*
%TO.N,/AY_AS*%
X157057781Y-107192219D02*
X157057780Y-107192219D01*
X120400937Y-111308800D02*
X109251200Y-111308800D01*
X132632400Y-104867600D02*
X129558800Y-107941200D01*
X140749663Y-104459400D02*
X136371126Y-104459400D01*
X135962926Y-104867600D02*
X132632400Y-104867600D01*
X154733161Y-104867600D02*
X141157863Y-104867600D01*
X123768537Y-107941200D02*
X120400937Y-111308800D01*
X157057780Y-107192219D02*
X154733161Y-104867600D01*
X129558800Y-107941200D02*
X123768537Y-107941200D01*
X136371126Y-104459400D02*
X135962926Y-104867600D01*
X141157863Y-104867600D02*
X140749663Y-104459400D01*
X109251200Y-111308800D02*
X105430000Y-115130000D01*
%TO.N,/~{RAM_OE}*%
X158313750Y-115250000D02*
X145260797Y-115250000D01*
X145260797Y-115250000D02*
X145234000Y-115223203D01*
%TO.N,/~{RAM_CS}*%
X145287594Y-116750000D02*
X145234000Y-116696406D01*
X159833750Y-116750000D02*
X145287594Y-116750000D01*
%TO.N,/~{AY_CS}*%
X136139663Y-103900600D02*
X135731463Y-104308800D01*
X132400937Y-104308800D02*
X129327337Y-107382400D01*
X140981125Y-103900600D02*
X136139663Y-103900600D01*
X120169474Y-110750000D02*
X107270000Y-110750000D01*
X141389325Y-104308800D02*
X140981125Y-103900600D01*
X100350000Y-115130000D02*
X102890000Y-115130000D01*
X135731463Y-104308800D02*
X132400937Y-104308800D01*
X156044651Y-104308800D02*
X141389325Y-104308800D01*
X129327337Y-107382400D02*
X123537074Y-107382400D01*
X107270000Y-110750000D02*
X102890000Y-115130000D01*
X123537074Y-107382400D02*
X120169474Y-110750000D01*
X158887372Y-107151521D02*
X156044651Y-104308800D01*
%TD*%
%TA.AperFunction,Conductor*%
%TO.N,GNDD*%
G36*
X97182739Y-77019685D02*
G01*
X97228494Y-77072489D01*
X97239700Y-77124000D01*
X97239700Y-79569735D01*
X97220015Y-79636774D01*
X97203381Y-79657416D01*
X94239496Y-82621300D01*
X94239490Y-82621308D01*
X94182585Y-82719872D01*
X94182582Y-82719877D01*
X94168536Y-82772299D01*
X94156371Y-82817700D01*
X94153121Y-82829828D01*
X94153121Y-116528507D01*
X94153121Y-116642335D01*
X94166720Y-116693086D01*
X94182582Y-116752284D01*
X94182585Y-116752289D01*
X94239490Y-116850853D01*
X94239494Y-116850858D01*
X94239495Y-116850860D01*
X95984561Y-118595926D01*
X95984563Y-118595927D01*
X95984567Y-118595930D01*
X96058501Y-118638615D01*
X96083138Y-118652839D01*
X96103519Y-118658300D01*
X96193087Y-118682300D01*
X107330895Y-118682300D01*
X107397934Y-118701985D01*
X107429850Y-118731574D01*
X107449675Y-118757828D01*
X107601053Y-118895826D01*
X107601055Y-118895828D01*
X107700670Y-118957507D01*
X107775215Y-119003663D01*
X107966225Y-119077660D01*
X108167579Y-119115300D01*
X108167581Y-119115300D01*
X108372419Y-119115300D01*
X108372421Y-119115300D01*
X108573775Y-119077660D01*
X108764785Y-119003663D01*
X108938946Y-118895827D01*
X109090326Y-118757826D01*
X109213771Y-118594358D01*
X109305077Y-118410991D01*
X109361135Y-118213968D01*
X109380035Y-118010000D01*
X109379695Y-118006336D01*
X109361135Y-117806032D01*
X109361134Y-117806030D01*
X109355642Y-117786728D01*
X109305077Y-117609009D01*
X109300902Y-117600625D01*
X109236346Y-117470979D01*
X109213771Y-117425642D01*
X109090326Y-117262174D01*
X109090324Y-117262171D01*
X108938946Y-117124173D01*
X108938944Y-117124171D01*
X108764790Y-117016340D01*
X108764783Y-117016336D01*
X108674916Y-116981522D01*
X108619515Y-116938949D01*
X108595924Y-116873182D01*
X108611635Y-116805102D01*
X108657709Y-116758508D01*
X108745668Y-116707726D01*
X109546262Y-115907130D01*
X109607585Y-115873646D01*
X109677276Y-115878630D01*
X109717477Y-115903172D01*
X109841054Y-116015827D01*
X109841056Y-116015828D01*
X109841057Y-116015829D01*
X109884578Y-116042776D01*
X110015215Y-116123663D01*
X110206225Y-116197660D01*
X110407579Y-116235300D01*
X110407581Y-116235300D01*
X110612419Y-116235300D01*
X110612421Y-116235300D01*
X110813775Y-116197660D01*
X111004785Y-116123663D01*
X111178946Y-116015827D01*
X111330326Y-115877826D01*
X111453771Y-115714358D01*
X111545077Y-115530991D01*
X111601135Y-115333968D01*
X111620035Y-115130000D01*
X111607178Y-114991253D01*
X111601135Y-114926032D01*
X111601134Y-114926029D01*
X111600327Y-114923194D01*
X111584709Y-114868302D01*
X111559986Y-114781407D01*
X111560573Y-114711540D01*
X111591567Y-114659796D01*
X111884547Y-114366816D01*
X111945869Y-114333334D01*
X111972227Y-114330500D01*
X114559671Y-114330500D01*
X114626710Y-114350185D01*
X114672465Y-114402989D01*
X114682409Y-114472147D01*
X114658625Y-114529227D01*
X114646229Y-114545641D01*
X114554927Y-114728998D01*
X114554921Y-114729013D01*
X114498865Y-114926030D01*
X114498864Y-114926032D01*
X114479965Y-115129999D01*
X114479965Y-115130000D01*
X114498864Y-115333967D01*
X114498865Y-115333969D01*
X114554921Y-115530986D01*
X114554927Y-115531001D01*
X114646229Y-115714358D01*
X114769675Y-115877828D01*
X114876737Y-115975427D01*
X114917517Y-116012603D01*
X114921053Y-116015826D01*
X114921055Y-116015828D01*
X114964578Y-116042776D01*
X115095215Y-116123663D01*
X115286225Y-116197660D01*
X115487579Y-116235300D01*
X115487581Y-116235300D01*
X115692419Y-116235300D01*
X115692421Y-116235300D01*
X115893775Y-116197660D01*
X116084785Y-116123663D01*
X116258946Y-116015827D01*
X116341633Y-115940447D01*
X116404434Y-115909832D01*
X116473821Y-115918029D01*
X116527762Y-115962439D01*
X116532550Y-115970076D01*
X116552274Y-116004239D01*
X119984561Y-119436526D01*
X119984563Y-119436527D01*
X119984567Y-119436530D01*
X120083131Y-119493435D01*
X120083138Y-119493439D01*
X120193086Y-119522900D01*
X120193087Y-119522900D01*
X120193088Y-119522900D01*
X138466312Y-119522900D01*
X138466314Y-119522900D01*
X138576262Y-119493439D01*
X138674839Y-119436526D01*
X139111366Y-118999999D01*
X154889965Y-118999999D01*
X154889965Y-119000000D01*
X154908864Y-119203967D01*
X154908865Y-119203969D01*
X154964921Y-119400986D01*
X154964927Y-119401001D01*
X155056229Y-119584358D01*
X155179675Y-119747828D01*
X155331053Y-119885826D01*
X155331055Y-119885828D01*
X155430670Y-119947507D01*
X155505215Y-119993663D01*
X155696225Y-120067660D01*
X155897579Y-120105300D01*
X155897581Y-120105300D01*
X156102419Y-120105300D01*
X156102421Y-120105300D01*
X156303775Y-120067660D01*
X156494785Y-119993663D01*
X156668946Y-119885827D01*
X156820326Y-119747826D01*
X156943771Y-119584358D01*
X157035077Y-119400991D01*
X157091135Y-119203968D01*
X157110035Y-119000000D01*
X157091135Y-118796032D01*
X157035077Y-118599009D01*
X157032761Y-118594358D01*
X156962421Y-118453097D01*
X156943771Y-118415642D01*
X156820326Y-118252174D01*
X156820324Y-118252171D01*
X156668946Y-118114173D01*
X156668944Y-118114171D01*
X156494790Y-118006340D01*
X156494783Y-118006336D01*
X156369632Y-117957853D01*
X156303775Y-117932340D01*
X156102421Y-117894700D01*
X155897579Y-117894700D01*
X155696225Y-117932340D01*
X155696222Y-117932340D01*
X155696222Y-117932341D01*
X155505216Y-118006336D01*
X155505209Y-118006340D01*
X155331055Y-118114171D01*
X155331053Y-118114173D01*
X155179675Y-118252171D01*
X155056229Y-118415641D01*
X154964927Y-118598998D01*
X154964921Y-118599013D01*
X154908865Y-118796030D01*
X154908864Y-118796032D01*
X154889965Y-118999999D01*
X139111366Y-118999999D01*
X143435543Y-114675822D01*
X143496866Y-114642337D01*
X143523224Y-114639503D01*
X144329118Y-114639503D01*
X144396157Y-114659188D01*
X144441912Y-114711992D01*
X144451856Y-114781150D01*
X144436505Y-114825503D01*
X144416925Y-114859416D01*
X144359146Y-115037242D01*
X144359145Y-115037244D01*
X144339600Y-115223203D01*
X144359145Y-115409161D01*
X144359146Y-115409163D01*
X144416925Y-115586989D01*
X144476611Y-115690367D01*
X144510415Y-115748918D01*
X144571026Y-115816233D01*
X144625589Y-115876832D01*
X144655819Y-115939824D01*
X144647194Y-116009159D01*
X144625589Y-116042776D01*
X144510414Y-116170692D01*
X144416925Y-116332619D01*
X144359146Y-116510445D01*
X144359145Y-116510447D01*
X144339600Y-116696406D01*
X144359145Y-116882364D01*
X144359146Y-116882366D01*
X144416925Y-117060192D01*
X144510413Y-117222119D01*
X144635530Y-117361075D01*
X144786795Y-117470976D01*
X144786796Y-117470976D01*
X144786800Y-117470979D01*
X144888996Y-117516479D01*
X144957609Y-117547029D01*
X144957615Y-117547031D01*
X145140510Y-117585906D01*
X145140511Y-117585906D01*
X145327489Y-117585906D01*
X145327490Y-117585906D01*
X145510385Y-117547031D01*
X145510387Y-117547029D01*
X145510390Y-117547029D01*
X145560826Y-117524573D01*
X145681200Y-117470979D01*
X145832470Y-117361075D01*
X145956498Y-117223327D01*
X146015985Y-117186679D01*
X146048648Y-117182300D01*
X158984640Y-117182300D01*
X159051679Y-117201985D01*
X159092027Y-117244300D01*
X159110163Y-117275713D01*
X159235280Y-117414669D01*
X159386545Y-117524570D01*
X159386546Y-117524570D01*
X159386550Y-117524573D01*
X159488746Y-117570073D01*
X159557359Y-117600623D01*
X159557365Y-117600625D01*
X159740260Y-117639500D01*
X159740261Y-117639500D01*
X159927239Y-117639500D01*
X159927240Y-117639500D01*
X160110135Y-117600625D01*
X160110137Y-117600623D01*
X160110140Y-117600623D01*
X160143194Y-117585906D01*
X160280950Y-117524573D01*
X160432220Y-117414669D01*
X160557335Y-117275715D01*
X160650825Y-117113785D01*
X160708605Y-116935956D01*
X160728150Y-116750000D01*
X160708605Y-116564044D01*
X160650825Y-116386215D01*
X160650824Y-116386213D01*
X160557336Y-116224286D01*
X160432219Y-116085330D01*
X160280954Y-115975429D01*
X160280951Y-115975427D01*
X160280950Y-115975427D01*
X160224047Y-115950092D01*
X160110140Y-115899376D01*
X160110134Y-115899374D01*
X159966114Y-115868762D01*
X159927240Y-115860500D01*
X159740260Y-115860500D01*
X159708200Y-115867314D01*
X159557365Y-115899374D01*
X159557359Y-115899376D01*
X159386550Y-115975427D01*
X159386545Y-115975429D01*
X159235280Y-116085330D01*
X159110163Y-116224286D01*
X159092027Y-116255700D01*
X159041460Y-116303916D01*
X158984640Y-116317700D01*
X158685951Y-116317700D01*
X158618912Y-116298015D01*
X158573157Y-116245211D01*
X158563213Y-116176053D01*
X158592238Y-116112497D01*
X158635515Y-116080421D01*
X158704685Y-116049623D01*
X158760950Y-116024573D01*
X158912220Y-115914669D01*
X159037335Y-115775715D01*
X159130825Y-115613785D01*
X159188605Y-115435956D01*
X159208150Y-115250000D01*
X159188605Y-115064044D01*
X159142840Y-114923194D01*
X159130825Y-114886214D01*
X159120483Y-114868302D01*
X159104009Y-114800402D01*
X159126861Y-114734374D01*
X159181781Y-114691183D01*
X159227869Y-114682300D01*
X166306912Y-114682300D01*
X166306914Y-114682300D01*
X166416862Y-114652839D01*
X166515439Y-114595926D01*
X168595926Y-112515439D01*
X168652839Y-112416862D01*
X168682300Y-112306914D01*
X168682300Y-112193086D01*
X168682300Y-110431419D01*
X168701985Y-110364380D01*
X168741023Y-110325992D01*
X168744783Y-110323663D01*
X168744785Y-110323663D01*
X168918946Y-110215827D01*
X169070326Y-110077826D01*
X169193771Y-109914358D01*
X169285077Y-109730991D01*
X169341135Y-109533968D01*
X169360035Y-109330000D01*
X169341135Y-109126032D01*
X169285077Y-108929009D01*
X169272045Y-108902838D01*
X169231476Y-108821364D01*
X169193771Y-108745642D01*
X169070326Y-108582174D01*
X169070324Y-108582171D01*
X168918946Y-108444173D01*
X168918944Y-108444171D01*
X168744790Y-108336340D01*
X168744783Y-108336336D01*
X168649280Y-108299338D01*
X168553775Y-108262340D01*
X168352421Y-108224700D01*
X168147579Y-108224700D01*
X167946225Y-108262340D01*
X167946222Y-108262340D01*
X167946222Y-108262341D01*
X167755216Y-108336336D01*
X167755209Y-108336340D01*
X167581055Y-108444171D01*
X167581053Y-108444173D01*
X167429675Y-108582171D01*
X167306229Y-108745641D01*
X167214927Y-108928998D01*
X167214921Y-108929013D01*
X167158865Y-109126030D01*
X167158864Y-109126032D01*
X167139965Y-109329999D01*
X167139965Y-109330000D01*
X167158864Y-109533967D01*
X167158865Y-109533969D01*
X167214921Y-109730986D01*
X167214927Y-109731001D01*
X167306229Y-109914358D01*
X167429675Y-110077828D01*
X167581053Y-110215826D01*
X167581055Y-110215828D01*
X167644509Y-110255117D01*
X167755215Y-110323663D01*
X167755216Y-110323663D01*
X167758977Y-110325992D01*
X167805613Y-110378020D01*
X167817700Y-110431419D01*
X167817700Y-112019573D01*
X167798015Y-112086612D01*
X167781381Y-112107254D01*
X166107254Y-113781381D01*
X166045931Y-113814866D01*
X166019573Y-113817700D01*
X158930980Y-113817700D01*
X158883230Y-113804904D01*
X158882166Y-113807475D01*
X158874657Y-113804364D01*
X158838006Y-113794543D01*
X158764708Y-113774903D01*
X158764707Y-113774903D01*
X143235884Y-113774903D01*
X143155395Y-113796470D01*
X143155394Y-113796469D01*
X143125939Y-113804362D01*
X143125928Y-113804367D01*
X143027364Y-113861272D01*
X143027356Y-113861278D01*
X138266654Y-118621981D01*
X138205331Y-118655466D01*
X138178973Y-118658300D01*
X134792426Y-118658300D01*
X134725387Y-118638615D01*
X134679632Y-118585811D01*
X134669688Y-118516653D01*
X134698713Y-118453097D01*
X134704745Y-118446619D01*
X134780511Y-118370853D01*
X134841834Y-118337368D01*
X134911526Y-118342352D01*
X134912940Y-118342890D01*
X134972483Y-118365957D01*
X135182946Y-118405300D01*
X135182948Y-118405300D01*
X135397052Y-118405300D01*
X135397054Y-118405300D01*
X135607517Y-118365957D01*
X135807167Y-118288612D01*
X135989206Y-118175899D01*
X136147434Y-118031655D01*
X136276464Y-117860792D01*
X136371900Y-117669130D01*
X136430494Y-117463195D01*
X136450249Y-117250000D01*
X136438589Y-117124171D01*
X136430494Y-117036805D01*
X136419824Y-116999303D01*
X136371900Y-116830870D01*
X136359971Y-116806914D01*
X136278020Y-116642333D01*
X136276464Y-116639208D01*
X136147434Y-116468345D01*
X136147432Y-116468342D01*
X135989206Y-116324101D01*
X135989204Y-116324099D01*
X135807170Y-116211389D01*
X135807164Y-116211387D01*
X135607517Y-116134043D01*
X135435506Y-116101888D01*
X135373227Y-116070221D01*
X135337954Y-116009908D01*
X135340888Y-115940100D01*
X135381097Y-115882960D01*
X135435505Y-115858111D01*
X135607517Y-115825957D01*
X135807167Y-115748612D01*
X135989206Y-115635899D01*
X136147434Y-115491655D01*
X136276464Y-115320792D01*
X136371900Y-115129130D01*
X136430494Y-114923195D01*
X136430494Y-114923191D01*
X136431434Y-114919889D01*
X136468713Y-114860795D01*
X136532023Y-114831238D01*
X136601262Y-114840600D01*
X136654449Y-114885910D01*
X136674696Y-114952781D01*
X136674700Y-114953823D01*
X136674700Y-115605571D01*
X136674702Y-115605594D01*
X136677661Y-115631106D01*
X136677662Y-115631109D01*
X136723765Y-115735524D01*
X136723766Y-115735525D01*
X136804475Y-115816234D01*
X136908891Y-115862338D01*
X136934421Y-115865300D01*
X138725578Y-115865299D01*
X138751109Y-115862338D01*
X138855525Y-115816234D01*
X138936234Y-115735525D01*
X138982338Y-115631109D01*
X138985300Y-115605579D01*
X138985299Y-114217426D01*
X139004984Y-114150388D01*
X139021618Y-114129746D01*
X139873946Y-113277419D01*
X139935269Y-113243934D01*
X139961627Y-113241100D01*
X163788374Y-113241100D01*
X163788376Y-113241100D01*
X163898324Y-113211639D01*
X163996901Y-113154726D01*
X166345926Y-110805701D01*
X166402839Y-110707124D01*
X166423045Y-110631713D01*
X166432300Y-110597175D01*
X166432300Y-107098579D01*
X166451985Y-107031540D01*
X166483415Y-106998261D01*
X166484014Y-106997826D01*
X166598470Y-106914669D01*
X166723585Y-106775715D01*
X166817075Y-106613785D01*
X166874855Y-106435956D01*
X166894400Y-106250000D01*
X166874855Y-106064044D01*
X166817075Y-105886215D01*
X166763615Y-105793619D01*
X166723586Y-105724286D01*
X166618577Y-105607662D01*
X166598470Y-105585331D01*
X166598469Y-105585330D01*
X166447204Y-105475429D01*
X166447201Y-105475427D01*
X166447200Y-105475427D01*
X166401698Y-105455168D01*
X166276390Y-105399376D01*
X166276384Y-105399374D01*
X166132364Y-105368762D01*
X166093490Y-105360500D01*
X165906510Y-105360500D01*
X165874450Y-105367314D01*
X165723615Y-105399374D01*
X165723613Y-105399375D01*
X165590735Y-105458537D01*
X165521485Y-105467821D01*
X165458209Y-105438193D01*
X165420996Y-105379058D01*
X165416300Y-105345257D01*
X165416300Y-100927088D01*
X165386838Y-100817137D01*
X165386835Y-100817132D01*
X165329930Y-100718568D01*
X165329924Y-100718560D01*
X165249438Y-100638074D01*
X163030415Y-98419050D01*
X162996930Y-98357727D01*
X162994775Y-98318407D01*
X162995332Y-98313105D01*
X162995334Y-98313100D01*
X163014879Y-98127144D01*
X162995334Y-97941188D01*
X162937554Y-97763359D01*
X162861059Y-97630865D01*
X162844065Y-97601430D01*
X162745452Y-97491910D01*
X162718949Y-97462475D01*
X162718948Y-97462474D01*
X162567683Y-97352573D01*
X162567680Y-97352571D01*
X162567679Y-97352571D01*
X162486263Y-97316322D01*
X162396869Y-97276520D01*
X162396863Y-97276518D01*
X162252843Y-97245906D01*
X162213969Y-97237644D01*
X162026989Y-97237644D01*
X161994929Y-97244458D01*
X161844094Y-97276518D01*
X161844088Y-97276520D01*
X161673279Y-97352571D01*
X161673274Y-97352573D01*
X161522009Y-97462474D01*
X161396892Y-97601430D01*
X161303404Y-97763357D01*
X161245625Y-97941183D01*
X161245624Y-97941185D01*
X161226079Y-98127144D01*
X161245624Y-98313102D01*
X161245625Y-98313104D01*
X161303404Y-98490930D01*
X161396892Y-98652857D01*
X161522009Y-98791813D01*
X161673274Y-98901714D01*
X161673275Y-98901714D01*
X161673279Y-98901717D01*
X161775475Y-98947217D01*
X161844088Y-98977767D01*
X161844094Y-98977769D01*
X162026989Y-99016644D01*
X162026990Y-99016644D01*
X162213968Y-99016644D01*
X162213969Y-99016644D01*
X162305890Y-98997105D01*
X162375553Y-99002420D01*
X162419349Y-99030714D01*
X164515381Y-101126745D01*
X164548866Y-101188068D01*
X164551700Y-101214426D01*
X164551700Y-110535573D01*
X164532015Y-110602612D01*
X164515381Y-110623254D01*
X163357254Y-111781381D01*
X163295931Y-111814866D01*
X163269573Y-111817700D01*
X147084589Y-111817700D01*
X147017550Y-111798015D01*
X146971795Y-111745211D01*
X146961851Y-111676053D01*
X146977202Y-111631700D01*
X147067074Y-111476036D01*
X147067075Y-111476035D01*
X147124855Y-111298206D01*
X147143781Y-111118137D01*
X147170366Y-111053523D01*
X147227663Y-111013539D01*
X147267102Y-111007100D01*
X149232112Y-111007100D01*
X149232114Y-111007100D01*
X149342062Y-110977639D01*
X149440639Y-110920726D01*
X150093636Y-110267728D01*
X150154957Y-110234245D01*
X150224648Y-110239229D01*
X150273465Y-110272439D01*
X150401530Y-110414669D01*
X150552795Y-110524570D01*
X150552796Y-110524570D01*
X150552800Y-110524573D01*
X150654996Y-110570073D01*
X150723609Y-110600623D01*
X150723615Y-110600625D01*
X150906510Y-110639500D01*
X150906511Y-110639500D01*
X151093489Y-110639500D01*
X151093490Y-110639500D01*
X151276385Y-110600625D01*
X151276387Y-110600623D01*
X151276390Y-110600623D01*
X151307133Y-110586935D01*
X151447200Y-110524573D01*
X151598470Y-110414669D01*
X151723585Y-110275715D01*
X151817075Y-110113785D01*
X151874855Y-109935956D01*
X151894400Y-109750000D01*
X151874855Y-109564044D01*
X151817075Y-109386215D01*
X151817074Y-109386213D01*
X151723586Y-109224286D01*
X151598469Y-109085330D01*
X151447204Y-108975429D01*
X151447201Y-108975427D01*
X151447200Y-108975427D01*
X151352948Y-108933463D01*
X151299711Y-108888213D01*
X151279390Y-108821364D01*
X151298435Y-108754140D01*
X151315703Y-108732503D01*
X151544547Y-108503659D01*
X151887638Y-108160568D01*
X151944551Y-108061991D01*
X151961667Y-107998113D01*
X151974012Y-107952042D01*
X151974012Y-107306867D01*
X151993697Y-107239828D01*
X152025127Y-107206549D01*
X152044515Y-107192463D01*
X152140182Y-107122957D01*
X152265297Y-106984003D01*
X152358787Y-106822073D01*
X152416567Y-106644244D01*
X152436112Y-106458288D01*
X152416567Y-106272332D01*
X152358787Y-106094503D01*
X152265297Y-105932573D01*
X152140182Y-105793619D01*
X152123338Y-105781381D01*
X151988916Y-105683717D01*
X151988913Y-105683715D01*
X151988912Y-105683715D01*
X151922340Y-105654075D01*
X151818102Y-105607664D01*
X151818096Y-105607662D01*
X151662541Y-105574599D01*
X151635202Y-105568788D01*
X151448222Y-105568788D01*
X151420883Y-105574599D01*
X151265327Y-105607662D01*
X151265321Y-105607664D01*
X151094512Y-105683715D01*
X151094507Y-105683717D01*
X150943242Y-105793618D01*
X150818125Y-105932574D01*
X150724637Y-106094501D01*
X150666858Y-106272327D01*
X150666857Y-106272329D01*
X150647312Y-106458288D01*
X150648915Y-106473540D01*
X150636345Y-106542269D01*
X150588612Y-106593293D01*
X150525594Y-106610500D01*
X150406510Y-106610500D01*
X150386233Y-106614810D01*
X150223615Y-106649374D01*
X150223609Y-106649376D01*
X150052800Y-106725427D01*
X150052795Y-106725429D01*
X149901530Y-106835330D01*
X149776413Y-106974286D01*
X149758277Y-107005700D01*
X149707710Y-107053916D01*
X149650890Y-107067700D01*
X147152825Y-107067700D01*
X147079526Y-107087340D01*
X147042876Y-107097161D01*
X147001212Y-107121216D01*
X146944300Y-107154073D01*
X146944297Y-107154075D01*
X145125792Y-108972581D01*
X145064469Y-109006066D01*
X145038111Y-109008900D01*
X132881887Y-109008900D01*
X132808588Y-109028540D01*
X132771938Y-109038361D01*
X132730274Y-109062416D01*
X132673362Y-109095273D01*
X132673359Y-109095275D01*
X128179488Y-113589145D01*
X128118165Y-113622630D01*
X128048473Y-113617646D01*
X128047014Y-113617091D01*
X127987522Y-113594044D01*
X127961315Y-113589145D01*
X127777054Y-113554700D01*
X127562946Y-113554700D01*
X127352483Y-113594043D01*
X127291557Y-113617646D01*
X127152835Y-113671387D01*
X127152829Y-113671389D01*
X126970795Y-113784099D01*
X126970793Y-113784101D01*
X126812567Y-113928342D01*
X126683536Y-114099207D01*
X126588104Y-114290859D01*
X126588099Y-114290872D01*
X126529505Y-114496805D01*
X126509751Y-114709999D01*
X126509751Y-114710000D01*
X126529505Y-114923194D01*
X126588099Y-115129127D01*
X126588104Y-115129140D01*
X126683536Y-115320792D01*
X126812567Y-115491657D01*
X126970793Y-115635898D01*
X126970795Y-115635900D01*
X127152829Y-115748610D01*
X127152830Y-115748610D01*
X127152833Y-115748612D01*
X127352483Y-115825957D01*
X127562946Y-115865300D01*
X127562948Y-115865300D01*
X127777052Y-115865300D01*
X127777054Y-115865300D01*
X127987517Y-115825957D01*
X128187167Y-115748612D01*
X128369206Y-115635899D01*
X128527434Y-115491655D01*
X128656464Y-115320792D01*
X128751900Y-115129130D01*
X128810494Y-114923195D01*
X128816529Y-114858064D01*
X128842315Y-114793128D01*
X128899115Y-114752440D01*
X128968896Y-114748920D01*
X129029503Y-114783685D01*
X129061693Y-114845698D01*
X129063471Y-114858065D01*
X129069505Y-114923194D01*
X129128099Y-115129127D01*
X129128104Y-115129140D01*
X129223536Y-115320792D01*
X129352567Y-115491657D01*
X129510793Y-115635898D01*
X129510795Y-115635900D01*
X129692829Y-115748610D01*
X129692830Y-115748610D01*
X129692833Y-115748612D01*
X129892483Y-115825957D01*
X130064492Y-115858111D01*
X130126772Y-115889780D01*
X130162045Y-115950092D01*
X130159111Y-116019900D01*
X130118902Y-116077040D01*
X130064492Y-116101888D01*
X129892483Y-116134043D01*
X129797884Y-116170691D01*
X129692835Y-116211387D01*
X129692829Y-116211389D01*
X129510795Y-116324099D01*
X129510793Y-116324101D01*
X129352567Y-116468342D01*
X129223536Y-116639207D01*
X129128104Y-116830859D01*
X129128099Y-116830872D01*
X129069505Y-117036805D01*
X129049751Y-117249999D01*
X129049751Y-117250000D01*
X129069505Y-117463194D01*
X129128099Y-117669127D01*
X129128104Y-117669140D01*
X129223536Y-117860792D01*
X129253728Y-117900773D01*
X129278420Y-117966135D01*
X129263855Y-118034469D01*
X129214657Y-118084082D01*
X129154774Y-118099500D01*
X127262226Y-118099500D01*
X127195187Y-118079815D01*
X127174545Y-118063181D01*
X125718619Y-116607254D01*
X125685134Y-116545931D01*
X125682300Y-116519573D01*
X125682300Y-109056300D01*
X125701985Y-108989261D01*
X125754789Y-108943506D01*
X125806300Y-108932300D01*
X130806912Y-108932300D01*
X130806914Y-108932300D01*
X130916862Y-108902839D01*
X131015439Y-108845926D01*
X132529160Y-107332203D01*
X132590481Y-107298720D01*
X132660172Y-107303704D01*
X132661623Y-107304255D01*
X132696225Y-107317660D01*
X132897579Y-107355300D01*
X132897581Y-107355300D01*
X133102419Y-107355300D01*
X133102421Y-107355300D01*
X133303775Y-107317660D01*
X133494785Y-107243663D01*
X133668946Y-107135827D01*
X133820326Y-106997826D01*
X133943771Y-106834358D01*
X133985264Y-106751029D01*
X134032766Y-106699792D01*
X134096264Y-106682300D01*
X135427700Y-106682300D01*
X135427702Y-106682300D01*
X135537650Y-106652839D01*
X135636227Y-106595926D01*
X136745334Y-105486819D01*
X136806657Y-105453334D01*
X136833015Y-105450500D01*
X140287773Y-105450500D01*
X140354812Y-105470185D01*
X140375454Y-105486819D01*
X142410324Y-107521688D01*
X142490812Y-107602176D01*
X142490814Y-107602177D01*
X142490818Y-107602180D01*
X142586179Y-107657236D01*
X142589389Y-107659089D01*
X142681322Y-107683722D01*
X142740981Y-107720088D01*
X142760227Y-107748225D01*
X142806229Y-107840608D01*
X142929675Y-108004078D01*
X143081053Y-108142076D01*
X143081055Y-108142078D01*
X143180670Y-108203757D01*
X143255215Y-108249913D01*
X143446225Y-108323910D01*
X143647579Y-108361550D01*
X143647581Y-108361550D01*
X143852419Y-108361550D01*
X143852421Y-108361550D01*
X144053775Y-108323910D01*
X144244785Y-108249913D01*
X144418946Y-108142077D01*
X144570326Y-108004076D01*
X144693771Y-107840608D01*
X144785077Y-107657241D01*
X144841135Y-107460218D01*
X144860035Y-107256250D01*
X144849462Y-107142152D01*
X144841135Y-107052282D01*
X144841134Y-107052280D01*
X144837581Y-107039793D01*
X144785077Y-106855259D01*
X144768552Y-106822073D01*
X144720428Y-106725427D01*
X144693771Y-106671892D01*
X144598217Y-106545358D01*
X144570324Y-106508421D01*
X144418946Y-106370423D01*
X144418944Y-106370421D01*
X144244790Y-106262590D01*
X144244783Y-106262586D01*
X144130928Y-106218479D01*
X144053775Y-106188590D01*
X143852421Y-106150950D01*
X143647579Y-106150950D01*
X143446225Y-106188590D01*
X143446222Y-106188590D01*
X143446222Y-106188591D01*
X143255216Y-106262586D01*
X143255209Y-106262590D01*
X143081055Y-106370421D01*
X143081053Y-106370423D01*
X142929675Y-106508422D01*
X142882218Y-106571265D01*
X142826108Y-106612901D01*
X142756396Y-106617592D01*
X142695583Y-106584219D01*
X141622946Y-105511581D01*
X141589461Y-105450258D01*
X141594445Y-105380566D01*
X141636317Y-105324633D01*
X141701781Y-105300216D01*
X141710627Y-105299900D01*
X154502734Y-105299900D01*
X154569773Y-105319585D01*
X154590415Y-105336219D01*
X155372896Y-106118700D01*
X156144607Y-106890410D01*
X156178092Y-106951733D01*
X156180247Y-106991052D01*
X156165030Y-107135828D01*
X156163381Y-107151521D01*
X156164420Y-107161406D01*
X156182926Y-107337479D01*
X156182927Y-107337481D01*
X156240706Y-107515307D01*
X156334194Y-107677234D01*
X156459311Y-107816190D01*
X156610576Y-107926091D01*
X156610577Y-107926091D01*
X156610581Y-107926094D01*
X156684689Y-107959089D01*
X156781390Y-108002144D01*
X156781396Y-108002146D01*
X156964291Y-108041021D01*
X156964292Y-108041021D01*
X157151270Y-108041021D01*
X157151271Y-108041021D01*
X157334166Y-108002146D01*
X157334168Y-108002144D01*
X157334171Y-108002144D01*
X157364703Y-107988550D01*
X157504981Y-107926094D01*
X157656251Y-107816190D01*
X157781366Y-107677236D01*
X157865189Y-107532050D01*
X157915756Y-107483835D01*
X157984363Y-107470611D01*
X158049227Y-107496579D01*
X158079963Y-107532050D01*
X158163786Y-107677234D01*
X158163785Y-107677234D01*
X158288902Y-107816190D01*
X158440167Y-107926091D01*
X158440168Y-107926091D01*
X158440172Y-107926094D01*
X158514280Y-107959089D01*
X158610981Y-108002144D01*
X158610987Y-108002146D01*
X158793882Y-108041021D01*
X158793883Y-108041021D01*
X158980861Y-108041021D01*
X158980862Y-108041021D01*
X159163757Y-108002146D01*
X159163759Y-108002144D01*
X159163762Y-108002144D01*
X159194294Y-107988550D01*
X159334572Y-107926094D01*
X159485842Y-107816190D01*
X159610957Y-107677236D01*
X159704447Y-107515306D01*
X159752150Y-107368489D01*
X159791587Y-107310815D01*
X159855946Y-107283616D01*
X159924792Y-107295530D01*
X159957762Y-107319127D01*
X160540811Y-107902176D01*
X160540813Y-107902177D01*
X160540817Y-107902180D01*
X160623285Y-107949792D01*
X160639388Y-107959089D01*
X160749336Y-107988550D01*
X160749337Y-107988550D01*
X161400890Y-107988550D01*
X161467929Y-108008235D01*
X161508277Y-108050550D01*
X161526413Y-108081963D01*
X161651530Y-108220919D01*
X161802795Y-108330820D01*
X161802796Y-108330820D01*
X161802800Y-108330823D01*
X161871814Y-108361550D01*
X161973609Y-108406873D01*
X161973615Y-108406875D01*
X162156510Y-108445750D01*
X162156511Y-108445750D01*
X162343489Y-108445750D01*
X162343490Y-108445750D01*
X162526385Y-108406875D01*
X162526387Y-108406873D01*
X162526390Y-108406873D01*
X162551201Y-108395826D01*
X162697200Y-108330823D01*
X162848470Y-108220919D01*
X162973585Y-108081965D01*
X163067075Y-107920035D01*
X163124855Y-107742206D01*
X163144400Y-107556250D01*
X163124855Y-107370294D01*
X163067075Y-107192465D01*
X163067074Y-107192463D01*
X162973586Y-107030536D01*
X162848469Y-106891580D01*
X162697204Y-106781679D01*
X162697201Y-106781677D01*
X162697200Y-106781677D01*
X162628364Y-106751029D01*
X162526390Y-106705626D01*
X162526384Y-106705624D01*
X162382364Y-106675012D01*
X162343490Y-106666750D01*
X162156510Y-106666750D01*
X162124450Y-106673564D01*
X161973615Y-106705624D01*
X161973609Y-106705626D01*
X161802800Y-106781677D01*
X161802795Y-106781679D01*
X161651530Y-106891580D01*
X161526413Y-107030536D01*
X161508277Y-107061950D01*
X161457710Y-107110166D01*
X161400890Y-107123950D01*
X161036677Y-107123950D01*
X160969638Y-107104265D01*
X160948996Y-107087631D01*
X159515440Y-105654075D01*
X159515432Y-105654069D01*
X159416868Y-105597164D01*
X159416863Y-105597161D01*
X159380212Y-105587340D01*
X159306914Y-105567700D01*
X159306913Y-105567700D01*
X159306912Y-105567700D01*
X159043585Y-105567700D01*
X158976546Y-105548015D01*
X158955904Y-105531381D01*
X157908142Y-104483619D01*
X156828598Y-103404074D01*
X156828596Y-103404073D01*
X156828591Y-103404069D01*
X156730027Y-103347164D01*
X156730022Y-103347161D01*
X156693371Y-103337340D01*
X156620073Y-103317700D01*
X156620072Y-103317700D01*
X156620071Y-103317700D01*
X141851215Y-103317700D01*
X141784176Y-103298015D01*
X141763534Y-103281381D01*
X141478028Y-102995875D01*
X141478020Y-102995869D01*
X141379456Y-102938964D01*
X141379451Y-102938961D01*
X141342800Y-102929140D01*
X141269502Y-102909500D01*
X141269501Y-102909500D01*
X135965114Y-102909500D01*
X135851286Y-102909500D01*
X135817859Y-102918457D01*
X135741336Y-102938961D01*
X135741331Y-102938964D01*
X135642767Y-102995869D01*
X135642759Y-102995875D01*
X135357254Y-103281381D01*
X135295931Y-103314866D01*
X135269573Y-103317700D01*
X134016585Y-103317700D01*
X133949546Y-103298015D01*
X133903791Y-103245211D01*
X133893847Y-103176053D01*
X133917631Y-103118973D01*
X133943771Y-103084358D01*
X134035077Y-102900991D01*
X134091135Y-102703968D01*
X134110035Y-102500000D01*
X134091135Y-102296032D01*
X134035077Y-102099009D01*
X133943771Y-101915642D01*
X133875900Y-101825766D01*
X133820324Y-101752171D01*
X133668946Y-101614173D01*
X133668944Y-101614171D01*
X133494790Y-101506340D01*
X133494783Y-101506336D01*
X133361506Y-101454705D01*
X133303775Y-101432340D01*
X133102421Y-101394700D01*
X132897579Y-101394700D01*
X132696225Y-101432340D01*
X132696222Y-101432340D01*
X132696222Y-101432341D01*
X132505216Y-101506336D01*
X132505209Y-101506340D01*
X132331055Y-101614171D01*
X132331053Y-101614173D01*
X132179675Y-101752171D01*
X132056229Y-101915641D01*
X131964927Y-102098998D01*
X131964921Y-102099013D01*
X131908865Y-102296030D01*
X131908864Y-102296032D01*
X131889965Y-102499999D01*
X131889965Y-102500000D01*
X131908864Y-102703967D01*
X131908865Y-102703969D01*
X131964921Y-102900986D01*
X131964927Y-102901001D01*
X132056229Y-103084358D01*
X132101356Y-103144116D01*
X132126048Y-103209478D01*
X132111483Y-103277812D01*
X132062285Y-103327425D01*
X132034497Y-103338617D01*
X132002617Y-103347159D01*
X132002606Y-103347164D01*
X131904042Y-103404069D01*
X131904034Y-103404075D01*
X128953129Y-106354981D01*
X128891806Y-106388466D01*
X128865448Y-106391300D01*
X123362526Y-106391300D01*
X123248698Y-106391300D01*
X123193724Y-106406030D01*
X123138748Y-106420761D01*
X123138743Y-106420764D01*
X123040179Y-106477669D01*
X123040171Y-106477675D01*
X122486466Y-107031381D01*
X122425143Y-107064866D01*
X122398785Y-107067700D01*
X119221285Y-107067700D01*
X119154246Y-107048015D01*
X119110285Y-106998971D01*
X119073776Y-106925651D01*
X119073769Y-106925639D01*
X118950324Y-106762171D01*
X118798946Y-106624173D01*
X118798944Y-106624171D01*
X118624790Y-106516340D01*
X118624787Y-106516338D01*
X118624785Y-106516337D01*
X118624784Y-106516336D01*
X118624783Y-106516336D01*
X118468367Y-106455741D01*
X118433775Y-106442340D01*
X118232421Y-106404700D01*
X118027579Y-106404700D01*
X117826225Y-106442340D01*
X117826222Y-106442340D01*
X117826222Y-106442341D01*
X117635216Y-106516336D01*
X117635212Y-106516338D01*
X117559680Y-106563105D01*
X117492319Y-106581659D01*
X117425620Y-106560851D01*
X117406723Y-106545358D01*
X114775440Y-103914075D01*
X114775432Y-103914069D01*
X114676868Y-103857164D01*
X114676863Y-103857161D01*
X114640212Y-103847340D01*
X114566914Y-103827700D01*
X114566913Y-103827700D01*
X114566912Y-103827700D01*
X112930857Y-103827700D01*
X112863818Y-103808015D01*
X112818063Y-103755211D01*
X112808119Y-103686053D01*
X112837144Y-103622497D01*
X112895922Y-103584723D01*
X112908062Y-103581813D01*
X112983775Y-103567660D01*
X113174785Y-103493663D01*
X113348946Y-103385827D01*
X113500326Y-103247826D01*
X113623771Y-103084358D01*
X113715077Y-102900991D01*
X113771135Y-102703968D01*
X113790035Y-102500000D01*
X113771135Y-102296032D01*
X113715077Y-102099009D01*
X113623771Y-101915642D01*
X113555900Y-101825766D01*
X113500324Y-101752171D01*
X113348946Y-101614173D01*
X113348944Y-101614171D01*
X113174790Y-101506340D01*
X113174783Y-101506336D01*
X113041506Y-101454705D01*
X112983775Y-101432340D01*
X112782421Y-101394700D01*
X112577579Y-101394700D01*
X112376225Y-101432340D01*
X112376222Y-101432340D01*
X112376222Y-101432341D01*
X112185216Y-101506336D01*
X112185209Y-101506340D01*
X112011055Y-101614171D01*
X112011053Y-101614173D01*
X111859675Y-101752171D01*
X111736229Y-101915641D01*
X111644927Y-102098998D01*
X111644921Y-102099013D01*
X111588865Y-102296030D01*
X111588864Y-102296032D01*
X111569965Y-102499999D01*
X111569965Y-102500000D01*
X111588864Y-102703967D01*
X111588865Y-102703969D01*
X111644921Y-102900986D01*
X111644927Y-102901001D01*
X111736229Y-103084358D01*
X111859675Y-103247828D01*
X112011053Y-103385826D01*
X112011055Y-103385828D01*
X112069110Y-103421774D01*
X112185215Y-103493663D01*
X112376225Y-103567660D01*
X112451929Y-103581811D01*
X112514209Y-103613479D01*
X112549482Y-103673792D01*
X112546548Y-103743600D01*
X112506339Y-103800740D01*
X112441621Y-103827071D01*
X112429143Y-103827700D01*
X112130427Y-103827700D01*
X112063388Y-103808015D01*
X112042746Y-103791381D01*
X111221571Y-102970206D01*
X111188086Y-102908883D01*
X111189986Y-102848591D01*
X111193759Y-102835330D01*
X111231135Y-102703968D01*
X111250035Y-102500000D01*
X111231135Y-102296032D01*
X111175077Y-102099009D01*
X111083771Y-101915642D01*
X111015900Y-101825766D01*
X110960324Y-101752171D01*
X110808947Y-101614174D01*
X110808946Y-101614173D01*
X110634785Y-101506337D01*
X110631022Y-101504007D01*
X110584387Y-101451979D01*
X110572300Y-101398580D01*
X110572300Y-100333089D01*
X110572299Y-100333085D01*
X110554174Y-100265437D01*
X110554174Y-100265436D01*
X110542841Y-100223144D01*
X110542840Y-100223141D01*
X110542839Y-100223138D01*
X110542835Y-100223131D01*
X110485930Y-100124567D01*
X110485924Y-100124559D01*
X99533870Y-89172505D01*
X99500385Y-89111182D01*
X99500283Y-89067535D01*
X99499175Y-89067419D01*
X99499853Y-89060959D01*
X99499855Y-89060956D01*
X99519400Y-88875000D01*
X99499855Y-88689044D01*
X99442075Y-88511215D01*
X99425079Y-88481777D01*
X99348586Y-88349286D01*
X99223469Y-88210330D01*
X99072204Y-88100429D01*
X99072201Y-88100427D01*
X99072200Y-88100427D01*
X99002982Y-88069609D01*
X98901390Y-88024376D01*
X98901384Y-88024374D01*
X98757364Y-87993762D01*
X98718490Y-87985500D01*
X98531510Y-87985500D01*
X98499450Y-87992314D01*
X98348615Y-88024374D01*
X98348613Y-88024375D01*
X98215735Y-88083537D01*
X98146485Y-88092821D01*
X98083209Y-88063193D01*
X98045996Y-88004058D01*
X98041300Y-87970257D01*
X98041300Y-87621426D01*
X98060985Y-87554387D01*
X98077619Y-87533745D01*
X98991031Y-86620333D01*
X99904726Y-85706638D01*
X99961639Y-85608061D01*
X99991100Y-85498113D01*
X99991100Y-85444218D01*
X100010785Y-85377179D01*
X100063589Y-85331424D01*
X100132747Y-85321480D01*
X100196303Y-85350505D01*
X100207248Y-85361244D01*
X100317030Y-85483169D01*
X100415320Y-85554581D01*
X100432085Y-85566761D01*
X100474751Y-85622091D01*
X100483200Y-85667079D01*
X100483200Y-86396557D01*
X100483200Y-86510385D01*
X100484616Y-86515669D01*
X100512661Y-86620334D01*
X100512664Y-86620339D01*
X100569569Y-86718903D01*
X100569573Y-86718908D01*
X100569574Y-86718910D01*
X100673725Y-86823061D01*
X100743181Y-86892516D01*
X100776666Y-86953839D01*
X100779500Y-86980197D01*
X100779500Y-87713315D01*
X100779500Y-87827143D01*
X100799140Y-87900441D01*
X100808961Y-87937092D01*
X100808964Y-87937097D01*
X100865869Y-88035661D01*
X100865873Y-88035666D01*
X100865874Y-88035668D01*
X102226732Y-89396526D01*
X102226734Y-89396527D01*
X102226738Y-89396530D01*
X102325302Y-89453435D01*
X102325309Y-89453439D01*
X102435257Y-89482900D01*
X102435258Y-89482900D01*
X102435259Y-89482900D01*
X131266312Y-89482900D01*
X131266314Y-89482900D01*
X131376262Y-89453439D01*
X131474839Y-89396526D01*
X132469746Y-88401617D01*
X132531069Y-88368133D01*
X132557427Y-88365299D01*
X133845572Y-88365299D01*
X133845578Y-88365299D01*
X133871109Y-88362338D01*
X133975525Y-88316234D01*
X134056234Y-88235525D01*
X134102338Y-88131109D01*
X134105300Y-88105579D01*
X134105299Y-86414422D01*
X134105148Y-86413121D01*
X134102339Y-86388895D01*
X134100151Y-86380853D01*
X134101546Y-86310997D01*
X134140486Y-86252985D01*
X134204609Y-86225234D01*
X134219802Y-86224300D01*
X136428953Y-86224300D01*
X136428955Y-86224300D01*
X136538903Y-86194839D01*
X136637480Y-86137926D01*
X137247987Y-85527419D01*
X137309310Y-85493934D01*
X137335668Y-85491100D01*
X142345118Y-85491100D01*
X142412157Y-85510785D01*
X142457912Y-85563589D01*
X142467856Y-85632747D01*
X142452505Y-85677100D01*
X142432925Y-85711013D01*
X142375146Y-85888839D01*
X142375145Y-85888841D01*
X142355600Y-86074800D01*
X142375145Y-86260758D01*
X142375146Y-86260760D01*
X142432925Y-86438586D01*
X142526413Y-86600513D01*
X142581520Y-86661715D01*
X142651530Y-86739469D01*
X142743607Y-86806367D01*
X142766585Y-86823061D01*
X142809251Y-86878391D01*
X142817700Y-86923379D01*
X142817700Y-87285573D01*
X142798015Y-87352612D01*
X142781381Y-87373254D01*
X141290853Y-88863782D01*
X141229530Y-88897267D01*
X141203172Y-88900101D01*
X137349110Y-88900101D01*
X137282071Y-88880416D01*
X137241723Y-88838101D01*
X137223586Y-88806687D01*
X137098469Y-88667731D01*
X136947204Y-88557830D01*
X136947201Y-88557828D01*
X136947200Y-88557828D01*
X136861593Y-88519713D01*
X136776390Y-88481777D01*
X136776384Y-88481775D01*
X136632364Y-88451163D01*
X136593490Y-88442901D01*
X136406510Y-88442901D01*
X136374450Y-88449715D01*
X136223615Y-88481775D01*
X136223609Y-88481777D01*
X136052800Y-88557828D01*
X136052795Y-88557830D01*
X135901530Y-88667731D01*
X135776413Y-88806687D01*
X135682925Y-88968614D01*
X135625146Y-89146440D01*
X135625145Y-89146442D01*
X135622406Y-89172505D01*
X135605600Y-89332401D01*
X135625145Y-89518357D01*
X135625146Y-89518360D01*
X135625825Y-89524820D01*
X135624085Y-89525002D01*
X135619421Y-89586114D01*
X135591129Y-89629905D01*
X135191524Y-90029512D01*
X135130201Y-90062997D01*
X135103843Y-90065831D01*
X130616754Y-90065831D01*
X130502926Y-90065831D01*
X130447952Y-90080561D01*
X130392976Y-90095292D01*
X130392971Y-90095295D01*
X130294407Y-90152200D01*
X130294399Y-90152206D01*
X118723737Y-101722868D01*
X118662414Y-101756353D01*
X118592722Y-101751369D01*
X118552518Y-101726824D01*
X118549784Y-101724332D01*
X118428946Y-101614173D01*
X118428944Y-101614171D01*
X118254790Y-101506340D01*
X118254783Y-101506336D01*
X118121506Y-101454705D01*
X118063775Y-101432340D01*
X117862421Y-101394700D01*
X117657579Y-101394700D01*
X117456225Y-101432340D01*
X117456222Y-101432340D01*
X117456222Y-101432341D01*
X117265216Y-101506336D01*
X117265209Y-101506340D01*
X117091055Y-101614171D01*
X117091053Y-101614173D01*
X116939675Y-101752171D01*
X116816229Y-101915641D01*
X116724927Y-102098998D01*
X116724921Y-102099013D01*
X116668865Y-102296030D01*
X116668864Y-102296032D01*
X116649965Y-102499999D01*
X116649965Y-102500000D01*
X116668864Y-102703967D01*
X116668865Y-102703969D01*
X116724921Y-102900986D01*
X116724927Y-102901001D01*
X116816229Y-103084358D01*
X116939675Y-103247828D01*
X117091053Y-103385826D01*
X117091055Y-103385828D01*
X117149110Y-103421774D01*
X117265215Y-103493663D01*
X117456225Y-103567660D01*
X117657579Y-103605300D01*
X117657581Y-103605300D01*
X117862419Y-103605300D01*
X117862421Y-103605300D01*
X118063775Y-103567660D01*
X118254785Y-103493663D01*
X118428946Y-103385827D01*
X118552522Y-103273172D01*
X118615321Y-103242558D01*
X118684708Y-103250755D01*
X118723737Y-103277131D01*
X119652025Y-104205419D01*
X119685510Y-104266742D01*
X119680526Y-104336434D01*
X119638654Y-104392367D01*
X119573190Y-104416784D01*
X119564344Y-104417100D01*
X117799827Y-104417100D01*
X117732788Y-104397415D01*
X117712146Y-104380781D01*
X116301571Y-102970206D01*
X116268086Y-102908883D01*
X116269986Y-102848591D01*
X116273759Y-102835330D01*
X116311135Y-102703968D01*
X116330035Y-102500000D01*
X116311135Y-102296032D01*
X116255077Y-102099009D01*
X116163771Y-101915642D01*
X116095900Y-101825766D01*
X116040324Y-101752171D01*
X115888946Y-101614173D01*
X115888944Y-101614171D01*
X115714790Y-101506340D01*
X115714783Y-101506336D01*
X115581506Y-101454705D01*
X115523775Y-101432340D01*
X115322421Y-101394700D01*
X115117579Y-101394700D01*
X114916225Y-101432340D01*
X114916222Y-101432340D01*
X114916222Y-101432341D01*
X114725216Y-101506336D01*
X114725209Y-101506340D01*
X114551055Y-101614171D01*
X114551053Y-101614173D01*
X114399675Y-101752171D01*
X114276229Y-101915641D01*
X114184927Y-102098998D01*
X114184921Y-102099013D01*
X114128865Y-102296030D01*
X114128864Y-102296032D01*
X114109965Y-102499999D01*
X114109965Y-102500000D01*
X114128864Y-102703967D01*
X114128865Y-102703969D01*
X114184921Y-102900986D01*
X114184927Y-102901001D01*
X114276229Y-103084358D01*
X114399675Y-103247828D01*
X114551053Y-103385826D01*
X114551055Y-103385828D01*
X114609110Y-103421774D01*
X114725215Y-103493663D01*
X114916225Y-103567660D01*
X115117579Y-103605300D01*
X115117581Y-103605300D01*
X115322419Y-103605300D01*
X115322421Y-103605300D01*
X115523775Y-103567660D01*
X115558367Y-103554258D01*
X115627989Y-103548397D01*
X115689729Y-103581108D01*
X115690833Y-103582198D01*
X117303961Y-105195326D01*
X117349538Y-105221639D01*
X117402539Y-105252239D01*
X117512487Y-105281700D01*
X117512489Y-105281700D01*
X127369541Y-105281700D01*
X127369543Y-105281700D01*
X127479491Y-105252239D01*
X127578068Y-105195326D01*
X129496263Y-103277129D01*
X129557584Y-103243646D01*
X129627275Y-103248630D01*
X129667480Y-103273175D01*
X129791053Y-103385826D01*
X129791055Y-103385828D01*
X129849110Y-103421774D01*
X129965215Y-103493663D01*
X130156225Y-103567660D01*
X130357579Y-103605300D01*
X130357581Y-103605300D01*
X130562419Y-103605300D01*
X130562421Y-103605300D01*
X130763775Y-103567660D01*
X130954785Y-103493663D01*
X131128946Y-103385827D01*
X131280326Y-103247826D01*
X131403771Y-103084358D01*
X131495077Y-102900991D01*
X131551135Y-102703968D01*
X131570035Y-102500000D01*
X131551135Y-102296032D01*
X131495077Y-102099009D01*
X131403771Y-101915642D01*
X131335900Y-101825766D01*
X131280324Y-101752171D01*
X131128946Y-101614173D01*
X131128944Y-101614171D01*
X130954790Y-101506340D01*
X130954783Y-101506336D01*
X130821506Y-101454705D01*
X130763775Y-101432340D01*
X130562421Y-101394700D01*
X130357579Y-101394700D01*
X130156225Y-101432340D01*
X130156222Y-101432340D01*
X130156222Y-101432341D01*
X129965216Y-101506336D01*
X129965209Y-101506340D01*
X129849777Y-101577812D01*
X129782416Y-101596367D01*
X129715717Y-101575559D01*
X129670856Y-101521994D01*
X129660500Y-101472385D01*
X129660500Y-99187984D01*
X136506184Y-99187984D01*
X136525729Y-99373942D01*
X136525730Y-99373944D01*
X136583509Y-99551770D01*
X136676997Y-99713697D01*
X136802113Y-99852652D01*
X136824166Y-99868675D01*
X136866831Y-99924005D01*
X136872809Y-99993619D01*
X136840202Y-100055413D01*
X136824166Y-100069309D01*
X136802113Y-100085331D01*
X136676997Y-100224286D01*
X136583509Y-100386213D01*
X136525730Y-100564039D01*
X136525729Y-100564041D01*
X136506184Y-100750000D01*
X136525729Y-100935958D01*
X136525730Y-100935960D01*
X136583509Y-101113786D01*
X136676997Y-101275713D01*
X136802114Y-101414669D01*
X136953379Y-101524570D01*
X136953380Y-101524570D01*
X136953384Y-101524573D01*
X137034131Y-101560524D01*
X137124193Y-101600623D01*
X137124199Y-101600625D01*
X137307094Y-101639500D01*
X137307095Y-101639500D01*
X137494073Y-101639500D01*
X137494074Y-101639500D01*
X137676969Y-101600625D01*
X137676971Y-101600623D01*
X137676974Y-101600623D01*
X137702985Y-101589042D01*
X137847784Y-101524573D01*
X137999054Y-101414669D01*
X138124169Y-101275715D01*
X138217659Y-101113785D01*
X138275439Y-100935956D01*
X138294984Y-100750000D01*
X138275987Y-100569260D01*
X138288556Y-100500532D01*
X138336288Y-100449508D01*
X138399308Y-100432300D01*
X156519573Y-100432300D01*
X156586612Y-100451985D01*
X156607254Y-100468619D01*
X160841129Y-104702494D01*
X160874614Y-104763817D01*
X160874722Y-104807466D01*
X160875825Y-104807582D01*
X160875146Y-104814040D01*
X160875145Y-104814044D01*
X160860563Y-104952781D01*
X160855600Y-105000000D01*
X160875145Y-105185958D01*
X160875146Y-105185960D01*
X160932925Y-105363786D01*
X161026413Y-105525713D01*
X161151530Y-105664669D01*
X161302795Y-105774570D01*
X161302796Y-105774570D01*
X161302800Y-105774573D01*
X161404996Y-105820073D01*
X161473609Y-105850623D01*
X161473615Y-105850625D01*
X161656510Y-105889500D01*
X161656511Y-105889500D01*
X161843489Y-105889500D01*
X161843490Y-105889500D01*
X162026385Y-105850625D01*
X162026387Y-105850623D01*
X162026390Y-105850623D01*
X162049501Y-105840332D01*
X162197200Y-105774573D01*
X162348470Y-105664669D01*
X162473585Y-105525715D01*
X162567075Y-105363785D01*
X162624855Y-105185956D01*
X162644400Y-105000000D01*
X162624855Y-104814044D01*
X162567075Y-104636215D01*
X162473585Y-104474285D01*
X162348470Y-104335331D01*
X162348464Y-104335327D01*
X162346345Y-104332973D01*
X162316115Y-104269981D01*
X162324740Y-104200646D01*
X162346345Y-104167027D01*
X162348464Y-104164672D01*
X162348470Y-104164669D01*
X162473585Y-104025715D01*
X162567075Y-103863785D01*
X162624855Y-103685956D01*
X162644400Y-103500000D01*
X162624855Y-103314044D01*
X162567075Y-103136215D01*
X162567074Y-103136213D01*
X162473586Y-102974286D01*
X162348469Y-102835330D01*
X162197204Y-102725429D01*
X162197201Y-102725427D01*
X162197200Y-102725427D01*
X162149005Y-102703969D01*
X162026390Y-102649376D01*
X162026384Y-102649374D01*
X161882364Y-102618762D01*
X161843490Y-102610500D01*
X161656510Y-102610500D01*
X161656506Y-102610500D01*
X161570086Y-102628869D01*
X161500419Y-102623553D01*
X161456624Y-102595260D01*
X157917661Y-99056296D01*
X157917653Y-99056290D01*
X157819089Y-98999385D01*
X157819084Y-98999382D01*
X157782433Y-98989561D01*
X157709135Y-98969921D01*
X157709134Y-98969921D01*
X157709133Y-98969921D01*
X138355098Y-98969921D01*
X138288059Y-98950236D01*
X138242304Y-98897432D01*
X138237167Y-98884238D01*
X138217662Y-98824207D01*
X138217660Y-98824203D01*
X138217659Y-98824199D01*
X138124169Y-98662269D01*
X137999054Y-98523315D01*
X137994994Y-98520365D01*
X137847788Y-98413413D01*
X137847785Y-98413411D01*
X137847784Y-98413411D01*
X137802282Y-98393152D01*
X137676974Y-98337360D01*
X137676968Y-98337358D01*
X137532948Y-98306746D01*
X137494074Y-98298484D01*
X137307094Y-98298484D01*
X137275034Y-98305298D01*
X137124199Y-98337358D01*
X137124193Y-98337360D01*
X136953384Y-98413411D01*
X136953379Y-98413413D01*
X136802114Y-98523314D01*
X136676997Y-98662270D01*
X136583509Y-98824197D01*
X136525730Y-99002023D01*
X136525729Y-99002025D01*
X136506184Y-99187984D01*
X129660500Y-99187984D01*
X129660500Y-98252227D01*
X129680185Y-98185188D01*
X129696819Y-98164546D01*
X132017944Y-95843421D01*
X134512179Y-95843421D01*
X134531724Y-96029379D01*
X134531725Y-96029381D01*
X134589504Y-96207207D01*
X134663236Y-96334915D01*
X134682994Y-96369136D01*
X134739867Y-96432300D01*
X134812457Y-96512920D01*
X134810332Y-96514832D01*
X134840444Y-96563618D01*
X134839172Y-96633476D01*
X134813001Y-96679353D01*
X134712827Y-96790608D01*
X134619338Y-96952535D01*
X134561559Y-97130361D01*
X134561558Y-97130363D01*
X134542013Y-97316322D01*
X134561558Y-97502280D01*
X134561559Y-97502282D01*
X134619338Y-97680108D01*
X134712826Y-97842035D01*
X134837943Y-97980991D01*
X134989208Y-98090892D01*
X134989209Y-98090892D01*
X134989213Y-98090895D01*
X135091409Y-98136395D01*
X135160022Y-98166945D01*
X135160028Y-98166947D01*
X135342923Y-98205822D01*
X135342924Y-98205822D01*
X135529902Y-98205822D01*
X135529903Y-98205822D01*
X135712798Y-98166947D01*
X135712800Y-98166945D01*
X135712803Y-98166945D01*
X135736085Y-98156579D01*
X135883613Y-98090895D01*
X136034883Y-97980991D01*
X136159998Y-97842037D01*
X136253488Y-97680107D01*
X136311268Y-97502278D01*
X136330813Y-97316322D01*
X136330813Y-97316319D01*
X136330813Y-97309824D01*
X136332846Y-97309824D01*
X136343698Y-97250520D01*
X136391435Y-97199501D01*
X136454443Y-97182300D01*
X156769573Y-97182300D01*
X156836612Y-97201985D01*
X156857254Y-97218619D01*
X160734561Y-101095926D01*
X160734563Y-101095927D01*
X160734567Y-101095930D01*
X160833135Y-101152838D01*
X160833141Y-101152840D01*
X160850685Y-101157541D01*
X160850686Y-101157541D01*
X160852691Y-101158078D01*
X160857933Y-101159482D01*
X160917595Y-101195842D01*
X160933234Y-101217259D01*
X160966983Y-101275713D01*
X160966982Y-101275713D01*
X161092099Y-101414669D01*
X161243364Y-101524570D01*
X161243365Y-101524570D01*
X161243369Y-101524573D01*
X161324116Y-101560524D01*
X161414178Y-101600623D01*
X161414184Y-101600625D01*
X161597079Y-101639500D01*
X161597080Y-101639500D01*
X161784058Y-101639500D01*
X161784059Y-101639500D01*
X161966954Y-101600625D01*
X161966956Y-101600623D01*
X161966959Y-101600623D01*
X161992970Y-101589042D01*
X162137769Y-101524573D01*
X162289039Y-101414669D01*
X162414154Y-101275715D01*
X162507644Y-101113785D01*
X162565424Y-100935956D01*
X162584969Y-100750000D01*
X162565424Y-100564044D01*
X162507644Y-100386215D01*
X162476971Y-100333087D01*
X162414155Y-100224286D01*
X162289038Y-100085330D01*
X162137773Y-99975429D01*
X162137770Y-99975427D01*
X162137769Y-99975427D01*
X162092267Y-99955168D01*
X161966959Y-99899376D01*
X161966953Y-99899374D01*
X161822520Y-99868675D01*
X161784059Y-99860500D01*
X161597079Y-99860500D01*
X161565019Y-99867314D01*
X161414184Y-99899374D01*
X161414178Y-99899376D01*
X161243370Y-99975426D01*
X161093561Y-100084268D01*
X161027754Y-100107747D01*
X160959701Y-100091921D01*
X160932995Y-100071630D01*
X160073264Y-99211899D01*
X160039779Y-99150576D01*
X160044763Y-99080884D01*
X160086635Y-99024951D01*
X160114224Y-99010647D01*
X160113869Y-99009848D01*
X160173926Y-98983108D01*
X160290621Y-98931152D01*
X160441891Y-98821248D01*
X160567006Y-98682294D01*
X160660496Y-98520364D01*
X160718276Y-98342535D01*
X160737821Y-98156579D01*
X160718276Y-97970623D01*
X160660496Y-97792794D01*
X160639465Y-97756367D01*
X160567007Y-97630865D01*
X160441890Y-97491909D01*
X160290625Y-97382008D01*
X160290622Y-97382006D01*
X160290621Y-97382006D01*
X160224514Y-97352573D01*
X160119811Y-97305955D01*
X160119805Y-97305953D01*
X159975785Y-97275341D01*
X159936911Y-97267079D01*
X159749931Y-97267079D01*
X159663505Y-97285448D01*
X159593840Y-97280132D01*
X159550046Y-97251839D01*
X157952282Y-95654075D01*
X157952274Y-95654069D01*
X157853710Y-95597164D01*
X157853705Y-95597161D01*
X157817054Y-95587340D01*
X157743756Y-95567700D01*
X157743755Y-95567700D01*
X157743754Y-95567700D01*
X136342359Y-95567700D01*
X136275320Y-95548015D01*
X136229565Y-95495211D01*
X136224427Y-95482015D01*
X136223655Y-95479640D01*
X136223654Y-95479636D01*
X136130164Y-95317706D01*
X136005049Y-95178752D01*
X136005048Y-95178751D01*
X135853783Y-95068850D01*
X135853780Y-95068848D01*
X135853779Y-95068848D01*
X135808277Y-95048589D01*
X135682969Y-94992797D01*
X135682963Y-94992795D01*
X135538943Y-94962183D01*
X135500069Y-94953921D01*
X135313089Y-94953921D01*
X135281029Y-94960735D01*
X135130194Y-94992795D01*
X135130188Y-94992797D01*
X134959379Y-95068848D01*
X134959374Y-95068850D01*
X134808109Y-95178751D01*
X134682992Y-95317707D01*
X134589504Y-95479634D01*
X134531725Y-95657460D01*
X134531724Y-95657462D01*
X134512179Y-95843421D01*
X132017944Y-95843421D01*
X134611365Y-93250000D01*
X151855600Y-93250000D01*
X151875145Y-93435958D01*
X151875146Y-93435960D01*
X151932925Y-93613786D01*
X152026413Y-93775713D01*
X152151530Y-93914669D01*
X152302795Y-94024570D01*
X152302796Y-94024570D01*
X152302800Y-94024573D01*
X152375439Y-94056914D01*
X152473609Y-94100623D01*
X152473615Y-94100625D01*
X152656510Y-94139500D01*
X152656511Y-94139500D01*
X152843489Y-94139500D01*
X152843490Y-94139500D01*
X153026385Y-94100625D01*
X153026387Y-94100623D01*
X153026390Y-94100623D01*
X153049501Y-94090332D01*
X153197200Y-94024573D01*
X153348470Y-93914669D01*
X153473585Y-93775715D01*
X153567075Y-93613785D01*
X153624855Y-93435956D01*
X153644400Y-93250000D01*
X153624855Y-93064044D01*
X153567075Y-92886215D01*
X153525407Y-92814044D01*
X153473586Y-92724286D01*
X153348471Y-92585332D01*
X153335885Y-92576188D01*
X153233413Y-92501737D01*
X153190749Y-92446408D01*
X153182300Y-92401420D01*
X153182300Y-92027585D01*
X153201985Y-91960546D01*
X153218615Y-91939908D01*
X153948570Y-91209952D01*
X154009891Y-91176469D01*
X154079582Y-91181453D01*
X154135516Y-91223325D01*
X154154180Y-91259317D01*
X154182925Y-91347786D01*
X154276413Y-91509713D01*
X154401530Y-91648669D01*
X154552795Y-91758570D01*
X154552796Y-91758570D01*
X154552800Y-91758573D01*
X154654996Y-91804073D01*
X154723609Y-91834623D01*
X154723615Y-91834625D01*
X154906510Y-91873500D01*
X154906511Y-91873500D01*
X155093490Y-91873500D01*
X155166717Y-91857935D01*
X155236384Y-91863251D01*
X155280179Y-91891544D01*
X156591129Y-93202494D01*
X156624614Y-93263817D01*
X156624722Y-93307466D01*
X156625825Y-93307582D01*
X156625146Y-93314040D01*
X156625145Y-93314044D01*
X156612331Y-93435958D01*
X156605600Y-93500000D01*
X156625145Y-93685958D01*
X156625146Y-93685960D01*
X156682925Y-93863786D01*
X156776413Y-94025713D01*
X156901530Y-94164669D01*
X157052795Y-94274570D01*
X157052796Y-94274570D01*
X157052800Y-94274573D01*
X157154996Y-94320073D01*
X157223609Y-94350623D01*
X157223615Y-94350625D01*
X157406510Y-94389500D01*
X157406511Y-94389500D01*
X157593489Y-94389500D01*
X157593490Y-94389500D01*
X157776385Y-94350625D01*
X157776387Y-94350623D01*
X157776390Y-94350623D01*
X157799501Y-94340332D01*
X157947200Y-94274573D01*
X158098470Y-94164669D01*
X158223585Y-94025715D01*
X158317075Y-93863785D01*
X158374855Y-93685956D01*
X158394400Y-93500000D01*
X158374855Y-93314044D01*
X158317075Y-93136215D01*
X158275407Y-93064044D01*
X158223586Y-92974286D01*
X158098469Y-92835330D01*
X157947204Y-92725429D01*
X157947201Y-92725427D01*
X157947200Y-92725427D01*
X157887312Y-92698763D01*
X157776390Y-92649376D01*
X157776384Y-92649374D01*
X157632364Y-92618762D01*
X157593490Y-92610500D01*
X157406510Y-92610500D01*
X157320084Y-92628869D01*
X157250419Y-92623553D01*
X157206625Y-92595260D01*
X155905648Y-91294283D01*
X155872163Y-91232960D01*
X155874984Y-91176632D01*
X155873503Y-91176318D01*
X155874853Y-91169963D01*
X155874853Y-91169961D01*
X155874855Y-91169956D01*
X155894400Y-90984000D01*
X155874855Y-90798044D01*
X155817075Y-90620215D01*
X155817074Y-90620213D01*
X155723586Y-90458286D01*
X155598469Y-90319330D01*
X155447204Y-90209429D01*
X155447201Y-90209427D01*
X155447200Y-90209427D01*
X155376520Y-90177958D01*
X155270448Y-90130731D01*
X155271275Y-90128872D01*
X155221519Y-90094838D01*
X155194331Y-90030475D01*
X155206256Y-89961631D01*
X155229841Y-89928681D01*
X155987784Y-89170738D01*
X156049107Y-89137254D01*
X156101246Y-89137130D01*
X156187669Y-89155500D01*
X156374648Y-89155500D01*
X156374649Y-89155500D01*
X156557544Y-89116625D01*
X156557546Y-89116623D01*
X156557549Y-89116623D01*
X156580660Y-89106332D01*
X156728359Y-89040573D01*
X156879629Y-88930669D01*
X157004744Y-88791715D01*
X157098234Y-88629785D01*
X157156014Y-88451956D01*
X157175559Y-88266000D01*
X157156014Y-88080044D01*
X157098234Y-87902215D01*
X157074308Y-87860773D01*
X157004745Y-87740286D01*
X156879628Y-87601330D01*
X156728363Y-87491429D01*
X156728360Y-87491427D01*
X156728359Y-87491427D01*
X156666688Y-87463969D01*
X156557549Y-87415376D01*
X156557543Y-87415374D01*
X156413523Y-87384762D01*
X156374649Y-87376500D01*
X156187669Y-87376500D01*
X156155609Y-87383314D01*
X156004774Y-87415374D01*
X156004768Y-87415376D01*
X155833959Y-87491427D01*
X155833954Y-87491429D01*
X155682689Y-87601330D01*
X155557572Y-87740286D01*
X155464084Y-87902213D01*
X155406305Y-88080039D01*
X155406304Y-88080041D01*
X155399390Y-88145826D01*
X155386759Y-88266000D01*
X155406304Y-88451956D01*
X155406305Y-88451958D01*
X155406984Y-88458419D01*
X155405244Y-88458601D01*
X155400580Y-88519713D01*
X155372288Y-88563504D01*
X152404075Y-91531718D01*
X152404069Y-91531726D01*
X152347164Y-91630290D01*
X152347161Y-91630297D01*
X152340561Y-91654931D01*
X152330592Y-91692136D01*
X152330591Y-91692138D01*
X152317700Y-91740243D01*
X152317700Y-92401420D01*
X152298015Y-92468459D01*
X152266586Y-92501738D01*
X152151528Y-92585332D01*
X152026413Y-92724286D01*
X151932925Y-92886213D01*
X151875146Y-93064039D01*
X151875145Y-93064041D01*
X151855600Y-93250000D01*
X134611365Y-93250000D01*
X134642746Y-93218619D01*
X134704069Y-93185134D01*
X134730427Y-93182300D01*
X149306912Y-93182300D01*
X149306914Y-93182300D01*
X149416862Y-93152839D01*
X149515439Y-93095926D01*
X162970825Y-79640538D01*
X163032146Y-79607055D01*
X163084282Y-79606931D01*
X163237510Y-79639500D01*
X163237511Y-79639500D01*
X163424489Y-79639500D01*
X163424490Y-79639500D01*
X163607385Y-79600625D01*
X163607387Y-79600623D01*
X163607390Y-79600623D01*
X163634045Y-79588755D01*
X163778200Y-79524573D01*
X163929470Y-79414669D01*
X164054585Y-79275715D01*
X164148075Y-79113785D01*
X164205855Y-78935956D01*
X164225400Y-78750000D01*
X164205855Y-78564044D01*
X164148075Y-78386215D01*
X164147875Y-78385868D01*
X164054586Y-78224286D01*
X163929469Y-78085330D01*
X163778204Y-77975429D01*
X163778201Y-77975427D01*
X163778200Y-77975427D01*
X163732698Y-77955168D01*
X163607390Y-77899376D01*
X163607384Y-77899374D01*
X163433885Y-77862497D01*
X163424490Y-77860500D01*
X163237510Y-77860500D01*
X163228115Y-77862497D01*
X163054615Y-77899374D01*
X163054609Y-77899376D01*
X162883800Y-77975427D01*
X162883795Y-77975429D01*
X162732530Y-78085330D01*
X162607413Y-78224286D01*
X162513925Y-78386213D01*
X162456146Y-78564039D01*
X162456145Y-78564041D01*
X162436600Y-78750000D01*
X162449632Y-78874000D01*
X162437062Y-78942729D01*
X162413992Y-78974641D01*
X149107254Y-92281381D01*
X149045931Y-92314866D01*
X149019573Y-92317700D01*
X148843027Y-92317700D01*
X148775988Y-92298015D01*
X148730233Y-92245211D01*
X148720289Y-92176053D01*
X148749314Y-92112497D01*
X148755346Y-92106019D01*
X154939980Y-85921385D01*
X161136926Y-79724439D01*
X161170168Y-79666861D01*
X161193839Y-79625861D01*
X161205450Y-79582523D01*
X161241813Y-79522865D01*
X161252332Y-79514305D01*
X161389470Y-79414669D01*
X161514585Y-79275715D01*
X161608075Y-79113785D01*
X161665855Y-78935956D01*
X161685400Y-78750000D01*
X161665855Y-78564044D01*
X161608075Y-78386215D01*
X161607875Y-78385868D01*
X161514586Y-78224286D01*
X161389469Y-78085330D01*
X161238204Y-77975429D01*
X161238201Y-77975427D01*
X161238200Y-77975427D01*
X161192698Y-77955168D01*
X161067390Y-77899376D01*
X161067384Y-77899374D01*
X160893885Y-77862497D01*
X160884490Y-77860500D01*
X160697510Y-77860500D01*
X160688115Y-77862497D01*
X160514615Y-77899374D01*
X160514609Y-77899376D01*
X160343800Y-77975427D01*
X160343795Y-77975429D01*
X160192530Y-78085330D01*
X160067413Y-78224286D01*
X159973925Y-78386213D01*
X159916146Y-78564039D01*
X159916145Y-78564041D01*
X159896600Y-78750000D01*
X159916145Y-78935958D01*
X159916146Y-78935960D01*
X159973925Y-79113786D01*
X160067413Y-79275713D01*
X160128686Y-79343763D01*
X160158916Y-79406754D01*
X160150291Y-79476089D01*
X160124217Y-79514416D01*
X147932723Y-91705912D01*
X147871400Y-91739397D01*
X147845042Y-91742231D01*
X146708758Y-91742231D01*
X146641719Y-91722546D01*
X146595964Y-91669742D01*
X146586020Y-91600584D01*
X146615045Y-91537028D01*
X146621077Y-91530550D01*
X148601227Y-89550400D01*
X158553704Y-79597920D01*
X158590948Y-79572324D01*
X158625560Y-79556914D01*
X158698200Y-79524573D01*
X158849470Y-79414669D01*
X158974585Y-79275715D01*
X159068075Y-79113785D01*
X159125855Y-78935956D01*
X159145400Y-78750000D01*
X159125855Y-78564044D01*
X159068075Y-78386215D01*
X159067875Y-78385868D01*
X158974586Y-78224286D01*
X158849469Y-78085330D01*
X158698204Y-77975429D01*
X158698201Y-77975427D01*
X158698200Y-77975427D01*
X158652698Y-77955168D01*
X158527390Y-77899376D01*
X158527384Y-77899374D01*
X158353885Y-77862497D01*
X158344490Y-77860500D01*
X158157510Y-77860500D01*
X158148115Y-77862497D01*
X157974615Y-77899374D01*
X157974609Y-77899376D01*
X157803800Y-77975427D01*
X157803795Y-77975429D01*
X157652530Y-78085330D01*
X157527413Y-78224286D01*
X157433925Y-78386213D01*
X157376146Y-78564039D01*
X157376145Y-78564041D01*
X157356600Y-78750000D01*
X157376145Y-78935958D01*
X157376146Y-78935960D01*
X157433925Y-79113786D01*
X157525874Y-79273047D01*
X157542347Y-79340947D01*
X157519494Y-79406974D01*
X157506168Y-79422728D01*
X153814981Y-83113916D01*
X153753658Y-83147401D01*
X153683966Y-83142417D01*
X153628033Y-83100545D01*
X153603616Y-83035081D01*
X153603300Y-83026235D01*
X153603300Y-77624000D01*
X153622985Y-77556961D01*
X153675789Y-77511206D01*
X153727300Y-77500000D01*
X167693700Y-77500000D01*
X167760739Y-77519685D01*
X167806494Y-77572489D01*
X167817700Y-77624000D01*
X167817700Y-84738580D01*
X167798015Y-84805619D01*
X167758978Y-84844007D01*
X167581052Y-84954174D01*
X167429675Y-85092171D01*
X167306229Y-85255641D01*
X167214927Y-85438998D01*
X167214921Y-85439013D01*
X167158865Y-85636030D01*
X167158864Y-85636032D01*
X167139965Y-85839999D01*
X167139965Y-85840000D01*
X167158864Y-86043967D01*
X167158865Y-86043970D01*
X167200013Y-86188590D01*
X167199426Y-86258457D01*
X167168428Y-86310205D01*
X166672275Y-86806359D01*
X166672269Y-86806367D01*
X166615364Y-86904931D01*
X166615361Y-86904938D01*
X166591852Y-86992676D01*
X166585900Y-87014887D01*
X166585900Y-97881286D01*
X166585900Y-97995114D01*
X166604546Y-98064700D01*
X166615361Y-98105063D01*
X166615364Y-98105068D01*
X166672269Y-98203632D01*
X166672275Y-98203640D01*
X167168428Y-98699793D01*
X167201913Y-98761116D01*
X167200014Y-98821408D01*
X167158864Y-98966036D01*
X167139965Y-99169999D01*
X167139965Y-99170000D01*
X167158864Y-99373967D01*
X167158865Y-99373969D01*
X167214921Y-99570986D01*
X167214927Y-99571001D01*
X167306229Y-99754358D01*
X167429675Y-99917828D01*
X167581053Y-100055826D01*
X167581055Y-100055828D01*
X167639348Y-100091921D01*
X167755215Y-100163663D01*
X167946225Y-100237660D01*
X168147579Y-100275300D01*
X168147581Y-100275300D01*
X168352419Y-100275300D01*
X168352421Y-100275300D01*
X168553775Y-100237660D01*
X168744785Y-100163663D01*
X168918946Y-100055827D01*
X169070326Y-99917826D01*
X169193771Y-99754358D01*
X169285077Y-99570991D01*
X169341135Y-99373968D01*
X169360035Y-99170000D01*
X169341135Y-98966032D01*
X169285077Y-98769009D01*
X169250611Y-98699793D01*
X169227240Y-98652857D01*
X169193771Y-98585642D01*
X169070326Y-98422174D01*
X169070324Y-98422171D01*
X168918946Y-98284173D01*
X168918944Y-98284171D01*
X168744790Y-98176340D01*
X168744783Y-98176336D01*
X168617802Y-98127144D01*
X168553775Y-98102340D01*
X168352421Y-98064700D01*
X168147579Y-98064700D01*
X168046902Y-98083520D01*
X167946223Y-98102340D01*
X167946221Y-98102341D01*
X167911631Y-98115741D01*
X167842008Y-98121601D01*
X167780268Y-98088890D01*
X167779159Y-98087794D01*
X167486819Y-97795454D01*
X167453334Y-97734131D01*
X167450500Y-97707773D01*
X167450500Y-87302226D01*
X167470185Y-87235187D01*
X167486815Y-87214549D01*
X167779160Y-86922203D01*
X167840481Y-86888720D01*
X167910172Y-86893704D01*
X167911623Y-86894255D01*
X167946225Y-86907660D01*
X168147579Y-86945300D01*
X168147581Y-86945300D01*
X168352419Y-86945300D01*
X168352421Y-86945300D01*
X168553775Y-86907660D01*
X168744785Y-86833663D01*
X168918946Y-86725827D01*
X169070326Y-86587826D01*
X169193771Y-86424358D01*
X169285077Y-86240991D01*
X169341135Y-86043968D01*
X169360035Y-85840000D01*
X169341135Y-85636032D01*
X169285077Y-85439009D01*
X169271709Y-85412163D01*
X169226554Y-85321480D01*
X169193771Y-85255642D01*
X169134544Y-85177213D01*
X169070324Y-85092171D01*
X168918947Y-84954174D01*
X168918946Y-84954173D01*
X168744785Y-84846337D01*
X168741022Y-84844007D01*
X168694387Y-84791979D01*
X168682300Y-84738580D01*
X168682300Y-77624000D01*
X168701985Y-77556961D01*
X168754789Y-77511206D01*
X168806300Y-77500000D01*
X170074243Y-77500000D01*
X170141282Y-77519685D01*
X170187037Y-77572489D01*
X170198243Y-77623866D01*
X170247132Y-122811090D01*
X170248825Y-124375366D01*
X170229213Y-124442427D01*
X170176458Y-124488239D01*
X170124825Y-124499500D01*
X93124054Y-124499500D01*
X93057015Y-124479815D01*
X93011260Y-124427011D01*
X93000054Y-124375589D01*
X92998964Y-122850500D01*
X92997731Y-121124038D01*
X94649500Y-121124038D01*
X94649500Y-121375961D01*
X94688910Y-121624785D01*
X94766760Y-121864383D01*
X94881132Y-122088848D01*
X95029201Y-122292649D01*
X95029205Y-122292654D01*
X95207345Y-122470794D01*
X95207350Y-122470798D01*
X95385117Y-122599952D01*
X95411155Y-122618870D01*
X95554184Y-122691747D01*
X95635616Y-122733239D01*
X95635618Y-122733239D01*
X95635621Y-122733241D01*
X95875215Y-122811090D01*
X96124038Y-122850500D01*
X96124039Y-122850500D01*
X96375961Y-122850500D01*
X96375962Y-122850500D01*
X96624785Y-122811090D01*
X96864379Y-122733241D01*
X97088845Y-122618870D01*
X97292656Y-122470793D01*
X97470793Y-122292656D01*
X97618870Y-122088845D01*
X97733241Y-121864379D01*
X97811090Y-121624785D01*
X97850500Y-121375962D01*
X97850500Y-121124038D01*
X164649500Y-121124038D01*
X164649500Y-121375961D01*
X164688910Y-121624785D01*
X164766760Y-121864383D01*
X164881132Y-122088848D01*
X165029201Y-122292649D01*
X165029205Y-122292654D01*
X165207345Y-122470794D01*
X165207350Y-122470798D01*
X165385117Y-122599952D01*
X165411155Y-122618870D01*
X165554184Y-122691747D01*
X165635616Y-122733239D01*
X165635618Y-122733239D01*
X165635621Y-122733241D01*
X165875215Y-122811090D01*
X166124038Y-122850500D01*
X166124039Y-122850500D01*
X166375961Y-122850500D01*
X166375962Y-122850500D01*
X166624785Y-122811090D01*
X166864379Y-122733241D01*
X167088845Y-122618870D01*
X167292656Y-122470793D01*
X167470793Y-122292656D01*
X167618870Y-122088845D01*
X167733241Y-121864379D01*
X167811090Y-121624785D01*
X167850500Y-121375962D01*
X167850500Y-121124038D01*
X167811090Y-120875215D01*
X167733241Y-120635621D01*
X167733239Y-120635618D01*
X167733239Y-120635616D01*
X167691747Y-120554184D01*
X167618870Y-120411155D01*
X167599952Y-120385117D01*
X167470798Y-120207350D01*
X167470794Y-120207345D01*
X167292654Y-120029205D01*
X167292649Y-120029201D01*
X167088848Y-119881132D01*
X167088847Y-119881131D01*
X167088845Y-119881130D01*
X167018747Y-119845413D01*
X166864383Y-119766760D01*
X166624785Y-119688910D01*
X166375962Y-119649500D01*
X166124038Y-119649500D01*
X165999626Y-119669205D01*
X165875214Y-119688910D01*
X165635616Y-119766760D01*
X165411151Y-119881132D01*
X165207350Y-120029201D01*
X165207345Y-120029205D01*
X165029205Y-120207345D01*
X165029201Y-120207350D01*
X164881132Y-120411151D01*
X164766760Y-120635616D01*
X164688910Y-120875214D01*
X164649500Y-121124038D01*
X97850500Y-121124038D01*
X97811090Y-120875215D01*
X97733241Y-120635621D01*
X97733239Y-120635618D01*
X97733239Y-120635616D01*
X97691747Y-120554184D01*
X97618870Y-120411155D01*
X97599952Y-120385117D01*
X97470798Y-120207350D01*
X97470794Y-120207345D01*
X97292654Y-120029205D01*
X97292649Y-120029201D01*
X97088848Y-119881132D01*
X97088847Y-119881131D01*
X97088845Y-119881130D01*
X97018747Y-119845413D01*
X96864383Y-119766760D01*
X96624785Y-119688910D01*
X96375962Y-119649500D01*
X96124038Y-119649500D01*
X95999626Y-119669205D01*
X95875214Y-119688910D01*
X95635616Y-119766760D01*
X95411151Y-119881132D01*
X95207350Y-120029201D01*
X95207345Y-120029205D01*
X95029205Y-120207345D01*
X95029201Y-120207350D01*
X94881132Y-120411151D01*
X94766760Y-120635616D01*
X94688910Y-120875214D01*
X94649500Y-121124038D01*
X92997731Y-121124038D01*
X92966294Y-77124088D01*
X92985931Y-77057035D01*
X93038702Y-77011242D01*
X93090294Y-77000000D01*
X97115700Y-77000000D01*
X97182739Y-77019685D01*
G37*
%TD.AperFunction*%
%TA.AperFunction,Conductor*%
G36*
X97687703Y-92549514D02*
G01*
X97694181Y-92555546D01*
X104591381Y-99452746D01*
X104624866Y-99514069D01*
X104627700Y-99540427D01*
X104627700Y-101398580D01*
X104608015Y-101465619D01*
X104568978Y-101504007D01*
X104391052Y-101614174D01*
X104239675Y-101752171D01*
X104116229Y-101915641D01*
X104024927Y-102098998D01*
X104024921Y-102099013D01*
X103968865Y-102296030D01*
X103968864Y-102296032D01*
X103949965Y-102499999D01*
X103949965Y-102500000D01*
X103968864Y-102703967D01*
X103968865Y-102703969D01*
X104024921Y-102900986D01*
X104024927Y-102901001D01*
X104116229Y-103084358D01*
X104239675Y-103247828D01*
X104391053Y-103385826D01*
X104391055Y-103385828D01*
X104449110Y-103421774D01*
X104565215Y-103493663D01*
X104756225Y-103567660D01*
X104957579Y-103605300D01*
X104957581Y-103605300D01*
X105162419Y-103605300D01*
X105162421Y-103605300D01*
X105363775Y-103567660D01*
X105398367Y-103554258D01*
X105467989Y-103548397D01*
X105529729Y-103581108D01*
X105530840Y-103582205D01*
X106432254Y-104483619D01*
X106465739Y-104544942D01*
X106460755Y-104614634D01*
X106418883Y-104670567D01*
X106353419Y-104694984D01*
X106344573Y-104695300D01*
X105378026Y-104695300D01*
X105310987Y-104675615D01*
X105290345Y-104658981D01*
X103601571Y-102970206D01*
X103568086Y-102908883D01*
X103569986Y-102848591D01*
X103573759Y-102835330D01*
X103611135Y-102703968D01*
X103630035Y-102500000D01*
X103611135Y-102296032D01*
X103555077Y-102099009D01*
X103463771Y-101915642D01*
X103395900Y-101825766D01*
X103340324Y-101752171D01*
X103188946Y-101614173D01*
X103188944Y-101614171D01*
X103014790Y-101506340D01*
X103014783Y-101506336D01*
X102881506Y-101454705D01*
X102823775Y-101432340D01*
X102622421Y-101394700D01*
X102417579Y-101394700D01*
X102216225Y-101432340D01*
X102216222Y-101432340D01*
X102216222Y-101432341D01*
X102025216Y-101506336D01*
X102025209Y-101506340D01*
X101851055Y-101614171D01*
X101851053Y-101614173D01*
X101699675Y-101752171D01*
X101576229Y-101915641D01*
X101484927Y-102098998D01*
X101484921Y-102099013D01*
X101428865Y-102296030D01*
X101428864Y-102296032D01*
X101409965Y-102499999D01*
X101409965Y-102500000D01*
X101428864Y-102703967D01*
X101428865Y-102703969D01*
X101484921Y-102900986D01*
X101484927Y-102901001D01*
X101576229Y-103084358D01*
X101699675Y-103247828D01*
X101851053Y-103385826D01*
X101851055Y-103385828D01*
X101909110Y-103421774D01*
X102025215Y-103493663D01*
X102216225Y-103567660D01*
X102417579Y-103605300D01*
X102417581Y-103605300D01*
X102622419Y-103605300D01*
X102622421Y-103605300D01*
X102823775Y-103567660D01*
X102858367Y-103554258D01*
X102927989Y-103548397D01*
X102989729Y-103581108D01*
X102990833Y-103582198D01*
X103789416Y-104380781D01*
X104451055Y-105042419D01*
X104484540Y-105103742D01*
X104479556Y-105173434D01*
X104437684Y-105229367D01*
X104372220Y-105253784D01*
X104363374Y-105254100D01*
X103396827Y-105254100D01*
X103329788Y-105234415D01*
X103309146Y-105217781D01*
X101061571Y-102970206D01*
X101028086Y-102908883D01*
X101029986Y-102848591D01*
X101033759Y-102835330D01*
X101071135Y-102703968D01*
X101090035Y-102500000D01*
X101071135Y-102296032D01*
X101015077Y-102099009D01*
X100923771Y-101915642D01*
X100855900Y-101825766D01*
X100800324Y-101752171D01*
X100648946Y-101614173D01*
X100648944Y-101614171D01*
X100474790Y-101506340D01*
X100474783Y-101506336D01*
X100341506Y-101454705D01*
X100283775Y-101432340D01*
X100082421Y-101394700D01*
X99877579Y-101394700D01*
X99676225Y-101432340D01*
X99676222Y-101432340D01*
X99676222Y-101432341D01*
X99485216Y-101506336D01*
X99485209Y-101506340D01*
X99311055Y-101614171D01*
X99311053Y-101614173D01*
X99159675Y-101752171D01*
X99036229Y-101915641D01*
X98944927Y-102098998D01*
X98944921Y-102099013D01*
X98888865Y-102296030D01*
X98888864Y-102296032D01*
X98869965Y-102499999D01*
X98869965Y-102500000D01*
X98888864Y-102703967D01*
X98888865Y-102703969D01*
X98944921Y-102900986D01*
X98944927Y-102901001D01*
X99036229Y-103084358D01*
X99159675Y-103247828D01*
X99311053Y-103385826D01*
X99311055Y-103385828D01*
X99369110Y-103421774D01*
X99485215Y-103493663D01*
X99676225Y-103567660D01*
X99877579Y-103605300D01*
X99877581Y-103605300D01*
X100082419Y-103605300D01*
X100082421Y-103605300D01*
X100283775Y-103567660D01*
X100318367Y-103554258D01*
X100387989Y-103548397D01*
X100449729Y-103581108D01*
X100450833Y-103582198D01*
X102900961Y-106032326D01*
X102900963Y-106032327D01*
X102900967Y-106032330D01*
X102999531Y-106089235D01*
X102999538Y-106089239D01*
X103109486Y-106118700D01*
X103109487Y-106118700D01*
X105915973Y-106118700D01*
X105983012Y-106138385D01*
X106003654Y-106155019D01*
X106888428Y-107039793D01*
X106921913Y-107101116D01*
X106920013Y-107161408D01*
X106879370Y-107304259D01*
X106878864Y-107306036D01*
X106859965Y-107509999D01*
X106859965Y-107510000D01*
X106878864Y-107713967D01*
X106878865Y-107713969D01*
X106934921Y-107910986D01*
X106934927Y-107911001D01*
X107026229Y-108094358D01*
X107149675Y-108257828D01*
X107301053Y-108395826D01*
X107301055Y-108395828D01*
X107318897Y-108406875D01*
X107475215Y-108503663D01*
X107666225Y-108577660D01*
X107867579Y-108615300D01*
X107867581Y-108615300D01*
X108072419Y-108615300D01*
X108072421Y-108615300D01*
X108273775Y-108577660D01*
X108464785Y-108503663D01*
X108638946Y-108395827D01*
X108785373Y-108262341D01*
X108790324Y-108257828D01*
X108790326Y-108257826D01*
X108913771Y-108094358D01*
X109005077Y-107910991D01*
X109061135Y-107713968D01*
X109080035Y-107510000D01*
X109061135Y-107306032D01*
X109005077Y-107109009D01*
X109001146Y-107101115D01*
X108953635Y-107005700D01*
X108913771Y-106925642D01*
X108854544Y-106847213D01*
X108790324Y-106762171D01*
X108638946Y-106624173D01*
X108638944Y-106624171D01*
X108464790Y-106516340D01*
X108464787Y-106516338D01*
X108464785Y-106516337D01*
X108464784Y-106516336D01*
X108464783Y-106516336D01*
X108308367Y-106455741D01*
X108273775Y-106442340D01*
X108072421Y-106404700D01*
X107867579Y-106404700D01*
X107781661Y-106420761D01*
X107666223Y-106442340D01*
X107666221Y-106442341D01*
X107631631Y-106455741D01*
X107562008Y-106461601D01*
X107500268Y-106428890D01*
X107499159Y-106427794D01*
X106842946Y-105771581D01*
X106809461Y-105710258D01*
X106814445Y-105640566D01*
X106856317Y-105584633D01*
X106921781Y-105560216D01*
X106930627Y-105559900D01*
X108657173Y-105559900D01*
X108724212Y-105579585D01*
X108744854Y-105596219D01*
X109713524Y-106564889D01*
X109747009Y-106626212D01*
X109742025Y-106695904D01*
X109709384Y-106744205D01*
X109689677Y-106762171D01*
X109689676Y-106762171D01*
X109566229Y-106925641D01*
X109474927Y-107108998D01*
X109474921Y-107109013D01*
X109418865Y-107306030D01*
X109418864Y-107306032D01*
X109399965Y-107509999D01*
X109399965Y-107510000D01*
X109418864Y-107713967D01*
X109418865Y-107713969D01*
X109474921Y-107910986D01*
X109474927Y-107911001D01*
X109566229Y-108094358D01*
X109689675Y-108257828D01*
X109841053Y-108395826D01*
X109841055Y-108395828D01*
X109858897Y-108406875D01*
X110015215Y-108503663D01*
X110206225Y-108577660D01*
X110407579Y-108615300D01*
X110407581Y-108615300D01*
X110612419Y-108615300D01*
X110612421Y-108615300D01*
X110813775Y-108577660D01*
X111004785Y-108503663D01*
X111178946Y-108395827D01*
X111325373Y-108262341D01*
X111330324Y-108257828D01*
X111330326Y-108257826D01*
X111453771Y-108094358D01*
X111545077Y-107910991D01*
X111601135Y-107713968D01*
X111620035Y-107510000D01*
X111601135Y-107306032D01*
X111545077Y-107109009D01*
X111541146Y-107101115D01*
X111493635Y-107005700D01*
X111453771Y-106925642D01*
X111394544Y-106847213D01*
X111330324Y-106762171D01*
X111178946Y-106624173D01*
X111178944Y-106624171D01*
X111004790Y-106516340D01*
X111004787Y-106516338D01*
X111004785Y-106516337D01*
X111004784Y-106516336D01*
X111004783Y-106516336D01*
X110838050Y-106451744D01*
X110795163Y-106423798D01*
X109584146Y-105212781D01*
X109550661Y-105151458D01*
X109555645Y-105081766D01*
X109597517Y-105025833D01*
X109662981Y-105001416D01*
X109671827Y-105001100D01*
X110098373Y-105001100D01*
X110165412Y-105020785D01*
X110186054Y-105037419D01*
X112032520Y-106883885D01*
X112066005Y-106945208D01*
X112061021Y-107014900D01*
X112055839Y-107026837D01*
X112014926Y-107109000D01*
X112014918Y-107109020D01*
X111958865Y-107306029D01*
X111958864Y-107306032D01*
X111939965Y-107509999D01*
X111939965Y-107510000D01*
X111958864Y-107713967D01*
X111958865Y-107713969D01*
X112014921Y-107910986D01*
X112014927Y-107911001D01*
X112106229Y-108094358D01*
X112229675Y-108257828D01*
X112381053Y-108395826D01*
X112381055Y-108395828D01*
X112398897Y-108406875D01*
X112555215Y-108503663D01*
X112746225Y-108577660D01*
X112947579Y-108615300D01*
X112947581Y-108615300D01*
X113152419Y-108615300D01*
X113152421Y-108615300D01*
X113353775Y-108577660D01*
X113544785Y-108503663D01*
X113718946Y-108395827D01*
X113865373Y-108262341D01*
X113870324Y-108257828D01*
X113870326Y-108257826D01*
X113993771Y-108094358D01*
X114085077Y-107910991D01*
X114141135Y-107713968D01*
X114160035Y-107510000D01*
X114141135Y-107306032D01*
X114085077Y-107109009D01*
X114081146Y-107101115D01*
X114033635Y-107005700D01*
X113993771Y-106925642D01*
X113934544Y-106847213D01*
X113870324Y-106762171D01*
X113718946Y-106624173D01*
X113718944Y-106624171D01*
X113544790Y-106516340D01*
X113544787Y-106516338D01*
X113544785Y-106516337D01*
X113544784Y-106516336D01*
X113544783Y-106516336D01*
X113388367Y-106455741D01*
X113353775Y-106442340D01*
X113152421Y-106404700D01*
X112947579Y-106404700D01*
X112933125Y-106407402D01*
X112867324Y-106419702D01*
X112797809Y-106412671D01*
X112756859Y-106385494D01*
X111834146Y-105462781D01*
X111800661Y-105401458D01*
X111805645Y-105331766D01*
X111847517Y-105275833D01*
X111912981Y-105251416D01*
X111921827Y-105251100D01*
X112668373Y-105251100D01*
X112735412Y-105270785D01*
X112756054Y-105287419D01*
X114508428Y-107039792D01*
X114541913Y-107101115D01*
X114540014Y-107161406D01*
X114498864Y-107306034D01*
X114479965Y-107509999D01*
X114479965Y-107510000D01*
X114498864Y-107713967D01*
X114498865Y-107713969D01*
X114554921Y-107910986D01*
X114554927Y-107911001D01*
X114646229Y-108094358D01*
X114769675Y-108257828D01*
X114921053Y-108395826D01*
X114921055Y-108395828D01*
X114938897Y-108406875D01*
X115095215Y-108503663D01*
X115286225Y-108577660D01*
X115487579Y-108615300D01*
X115487581Y-108615300D01*
X115692419Y-108615300D01*
X115692421Y-108615300D01*
X115893775Y-108577660D01*
X116084785Y-108503663D01*
X116258946Y-108395827D01*
X116405373Y-108262341D01*
X116410324Y-108257828D01*
X116410326Y-108257826D01*
X116533771Y-108094358D01*
X116625077Y-107910991D01*
X116681135Y-107713968D01*
X116700035Y-107510000D01*
X116685908Y-107357545D01*
X116699323Y-107288978D01*
X116747680Y-107238546D01*
X116815626Y-107222263D01*
X116881588Y-107245300D01*
X116897060Y-107258425D01*
X116989715Y-107351080D01*
X117023200Y-107412403D01*
X117025505Y-107450200D01*
X117019965Y-107509997D01*
X117019965Y-107510000D01*
X117038864Y-107713967D01*
X117038865Y-107713969D01*
X117094921Y-107910986D01*
X117094927Y-107911001D01*
X117186229Y-108094358D01*
X117309675Y-108257828D01*
X117461053Y-108395826D01*
X117461055Y-108395828D01*
X117478897Y-108406875D01*
X117635215Y-108503663D01*
X117826225Y-108577660D01*
X118027579Y-108615300D01*
X118027581Y-108615300D01*
X118232419Y-108615300D01*
X118232421Y-108615300D01*
X118433775Y-108577660D01*
X118624785Y-108503663D01*
X118798946Y-108395827D01*
X118945373Y-108262341D01*
X118950324Y-108257828D01*
X118950326Y-108257826D01*
X119073771Y-108094358D01*
X119120244Y-108001026D01*
X119167745Y-107949792D01*
X119231243Y-107932300D01*
X122076448Y-107932300D01*
X122143487Y-107951985D01*
X122189242Y-108004789D01*
X122199186Y-108073947D01*
X122170161Y-108137503D01*
X122164130Y-108143979D01*
X121083824Y-109224285D01*
X120026728Y-110281381D01*
X119965405Y-110314866D01*
X119939047Y-110317700D01*
X107213087Y-110317700D01*
X107103139Y-110347161D01*
X107103137Y-110347161D01*
X107103137Y-110347162D01*
X107080730Y-110360099D01*
X107080728Y-110360100D01*
X107004561Y-110404073D01*
X107004559Y-110404075D01*
X103360839Y-114047794D01*
X103299516Y-114081279D01*
X103229824Y-114076295D01*
X103228364Y-114075739D01*
X103193782Y-114062342D01*
X103193778Y-114062341D01*
X103193775Y-114062340D01*
X102992421Y-114024700D01*
X102787579Y-114024700D01*
X102586225Y-114062340D01*
X102586222Y-114062340D01*
X102586222Y-114062341D01*
X102395216Y-114136336D01*
X102395209Y-114136340D01*
X102221055Y-114244171D01*
X102221053Y-114244173D01*
X102069675Y-114382171D01*
X101946228Y-114545643D01*
X101904736Y-114628971D01*
X101857234Y-114680208D01*
X101793736Y-114697700D01*
X101579299Y-114697700D01*
X101512260Y-114678015D01*
X101466505Y-114625211D01*
X101455299Y-114573700D01*
X101455299Y-114284428D01*
X101455299Y-114284422D01*
X101452338Y-114258891D01*
X101406234Y-114154475D01*
X101325525Y-114073766D01*
X101299650Y-114062341D01*
X101221110Y-114027662D01*
X101195579Y-114024700D01*
X99504428Y-114024700D01*
X99504405Y-114024702D01*
X99478893Y-114027661D01*
X99478890Y-114027662D01*
X99374475Y-114073765D01*
X99293766Y-114154474D01*
X99247662Y-114258888D01*
X99247662Y-114258890D01*
X99244700Y-114284419D01*
X99244700Y-115577573D01*
X99225015Y-115644612D01*
X99172211Y-115690367D01*
X99103053Y-115700311D01*
X99039497Y-115671286D01*
X99033019Y-115665254D01*
X98433219Y-115065454D01*
X98399734Y-115004131D01*
X98396900Y-114977773D01*
X98396900Y-112272247D01*
X98396899Y-112272240D01*
X98392180Y-112254629D01*
X98367439Y-112162297D01*
X98314692Y-112070935D01*
X98310530Y-112063726D01*
X98310524Y-112063718D01*
X97518819Y-111272013D01*
X97485334Y-111210690D01*
X97482500Y-111184332D01*
X97482500Y-107509999D01*
X99239965Y-107509999D01*
X99239965Y-107510000D01*
X99258864Y-107713967D01*
X99258865Y-107713969D01*
X99314921Y-107910986D01*
X99314927Y-107911001D01*
X99406229Y-108094358D01*
X99529675Y-108257828D01*
X99681053Y-108395826D01*
X99681055Y-108395828D01*
X99698897Y-108406875D01*
X99855215Y-108503663D01*
X100046225Y-108577660D01*
X100247579Y-108615300D01*
X100247581Y-108615300D01*
X100452419Y-108615300D01*
X100452421Y-108615300D01*
X100653775Y-108577660D01*
X100844785Y-108503663D01*
X101018946Y-108395827D01*
X101165373Y-108262341D01*
X101170324Y-108257828D01*
X101170326Y-108257826D01*
X101293771Y-108094358D01*
X101385077Y-107910991D01*
X101441135Y-107713968D01*
X101460035Y-107510000D01*
X101460035Y-107509999D01*
X101779965Y-107509999D01*
X101779965Y-107510000D01*
X101798864Y-107713967D01*
X101798865Y-107713969D01*
X101854921Y-107910986D01*
X101854927Y-107911001D01*
X101946229Y-108094358D01*
X102069675Y-108257828D01*
X102221053Y-108395826D01*
X102221055Y-108395828D01*
X102238897Y-108406875D01*
X102395215Y-108503663D01*
X102586225Y-108577660D01*
X102787579Y-108615300D01*
X102787581Y-108615300D01*
X102992419Y-108615300D01*
X102992421Y-108615300D01*
X103193775Y-108577660D01*
X103384785Y-108503663D01*
X103558946Y-108395827D01*
X103705373Y-108262341D01*
X103710324Y-108257828D01*
X103710326Y-108257826D01*
X103833771Y-108094358D01*
X103925077Y-107910991D01*
X103981135Y-107713968D01*
X104000035Y-107510000D01*
X104000035Y-107509999D01*
X104319965Y-107509999D01*
X104319965Y-107510000D01*
X104338864Y-107713967D01*
X104338865Y-107713969D01*
X104394921Y-107910986D01*
X104394927Y-107911001D01*
X104486229Y-108094358D01*
X104609675Y-108257828D01*
X104761053Y-108395826D01*
X104761055Y-108395828D01*
X104778897Y-108406875D01*
X104935215Y-108503663D01*
X105126225Y-108577660D01*
X105327579Y-108615300D01*
X105327581Y-108615300D01*
X105532419Y-108615300D01*
X105532421Y-108615300D01*
X105733775Y-108577660D01*
X105924785Y-108503663D01*
X106098946Y-108395827D01*
X106245373Y-108262341D01*
X106250324Y-108257828D01*
X106250326Y-108257826D01*
X106373771Y-108094358D01*
X106465077Y-107910991D01*
X106521135Y-107713968D01*
X106540035Y-107510000D01*
X106521135Y-107306032D01*
X106465077Y-107109009D01*
X106461146Y-107101115D01*
X106413635Y-107005700D01*
X106373771Y-106925642D01*
X106314544Y-106847213D01*
X106250324Y-106762171D01*
X106098946Y-106624173D01*
X106098944Y-106624171D01*
X105924790Y-106516340D01*
X105924787Y-106516338D01*
X105924785Y-106516337D01*
X105924784Y-106516336D01*
X105924783Y-106516336D01*
X105768367Y-106455741D01*
X105733775Y-106442340D01*
X105532421Y-106404700D01*
X105327579Y-106404700D01*
X105126225Y-106442340D01*
X105126222Y-106442340D01*
X105126222Y-106442341D01*
X104935216Y-106516336D01*
X104935209Y-106516340D01*
X104761055Y-106624171D01*
X104761053Y-106624173D01*
X104609675Y-106762171D01*
X104486229Y-106925641D01*
X104394927Y-107108998D01*
X104394921Y-107109013D01*
X104338865Y-107306030D01*
X104338864Y-107306032D01*
X104319965Y-107509999D01*
X104000035Y-107509999D01*
X103981135Y-107306032D01*
X103925077Y-107109009D01*
X103921146Y-107101115D01*
X103873635Y-107005700D01*
X103833771Y-106925642D01*
X103774544Y-106847213D01*
X103710324Y-106762171D01*
X103558946Y-106624173D01*
X103558944Y-106624171D01*
X103384790Y-106516340D01*
X103384787Y-106516338D01*
X103384785Y-106516337D01*
X103384784Y-106516336D01*
X103384783Y-106516336D01*
X103228367Y-106455741D01*
X103193775Y-106442340D01*
X102992421Y-106404700D01*
X102787579Y-106404700D01*
X102586225Y-106442340D01*
X102586222Y-106442340D01*
X102586222Y-106442341D01*
X102395216Y-106516336D01*
X102395209Y-106516340D01*
X102221055Y-106624171D01*
X102221053Y-106624173D01*
X102069675Y-106762171D01*
X101946229Y-106925641D01*
X101854927Y-107108998D01*
X101854921Y-107109013D01*
X101798865Y-107306030D01*
X101798864Y-107306032D01*
X101779965Y-107509999D01*
X101460035Y-107509999D01*
X101441135Y-107306032D01*
X101385077Y-107109009D01*
X101381146Y-107101115D01*
X101333635Y-107005700D01*
X101293771Y-106925642D01*
X101234544Y-106847213D01*
X101170324Y-106762171D01*
X101018946Y-106624173D01*
X101018944Y-106624171D01*
X100844790Y-106516340D01*
X100844787Y-106516338D01*
X100844785Y-106516337D01*
X100844784Y-106516336D01*
X100844783Y-106516336D01*
X100688367Y-106455741D01*
X100653775Y-106442340D01*
X100452421Y-106404700D01*
X100247579Y-106404700D01*
X100046225Y-106442340D01*
X100046222Y-106442340D01*
X100046222Y-106442341D01*
X99855216Y-106516336D01*
X99855209Y-106516340D01*
X99681055Y-106624171D01*
X99681053Y-106624173D01*
X99529675Y-106762171D01*
X99406229Y-106925641D01*
X99314927Y-107108998D01*
X99314921Y-107109013D01*
X99258865Y-107306030D01*
X99258864Y-107306032D01*
X99239965Y-107509999D01*
X97482500Y-107509999D01*
X97482500Y-92643227D01*
X97502185Y-92576188D01*
X97554989Y-92530433D01*
X97624147Y-92520489D01*
X97687703Y-92549514D01*
G37*
%TD.AperFunction*%
%TD*%
M02*
