M48
; DRILL file {KiCad 8.0.9-8.0.9-0~ubuntu24.04.1} date 2025-06-01T20:33:13-0400
; FORMAT={-:-/ absolute / inch / decimal}
; #@! TF.CreationDate,2025-06-01T20:33:13-04:00
; #@! TF.GenerationSoftware,Kicad,Pcbnew,8.0.9-8.0.9-0~ubuntu24.04.1
; #@! TF.FileFunction,Plated,1,2,PTH
FMAT,2
INCH
; #@! TA.AperFunction,Plated,PTH,ViaDrill
T1C0.0240
; #@! TA.AperFunction,Plated,PTH,ComponentDrill
T2C0.0315
; #@! TA.AperFunction,Plated,PTH,ComponentDrill
T3C0.0394
%
G90
G05
T1
X3.686Y-3.0659
X3.7672Y-4.5444
X3.7949Y-4.4934
X3.8169Y-4.4397
X3.8538Y-3.342
X3.8638Y-3.2732
X3.8681Y-3.7598
X3.8829Y-3.499
X3.9731Y-3.3393
X3.9764Y-3.6614
X3.9764Y-4.4193
X4.4291Y-3.1398
X4.5866Y-3.9173
X4.6555Y-3.3238
X4.7326Y-3.1706
X4.8425Y-3.1706
X4.872Y-3.0906
X5.0984Y-3.1594
X5.1772Y-3.1594
X5.331Y-3.7734
X5.3321Y-3.8314
X5.374Y-3.517
X5.4095Y-3.905
X5.4095Y-3.9665
X5.4331Y-3.1687
X5.5501Y-3.2006
X5.5967Y-3.2351
X5.6398Y-3.3888
X5.7179Y-4.5363
X5.7179Y-4.5943
X5.7579Y-4.3745
X5.7677Y-3.1911
X5.7677Y-3.2491
X5.7677Y-3.3071
X5.9252Y-4.2323
X5.9449Y-4.3209
X5.9662Y-4.1913
X5.9744Y-4.0354
X5.9843Y-4.685
X6.0138Y-3.6713
X6.0827Y-4.3012
X6.0925Y-4.0354
X6.1024Y-3.582
X6.1528Y-3.475
X6.1834Y-4.2186
X6.2008Y-3.6811
X6.2304Y-3.1004
X6.2328Y-4.5374
X6.2554Y-4.2186
X6.2697Y-4.1142
X6.2795Y-3.6811
X6.2927Y-4.5965
X6.293Y-3.8644
X6.3304Y-3.1004
X6.3658Y-3.9665
X6.3681Y-4.0748
X6.3681Y-4.1339
X6.3827Y-3.8633
X6.3878Y-4.2345
X6.4304Y-3.1004
X6.5354Y-4.1831
T2
X3.9362Y-3.4354
X3.9362Y-4.0354
X3.9508Y-4.2327
X3.9508Y-4.5327
X4.0362Y-3.4354
X4.0362Y-4.0354
X4.0508Y-4.2327
X4.0508Y-4.5327
X4.1362Y-3.4354
X4.1362Y-4.0354
X4.1508Y-4.2327
X4.1508Y-4.5327
X4.2362Y-3.4354
X4.2362Y-4.0354
X4.2508Y-4.2327
X4.2508Y-4.5327
X4.2626Y-4.6461
X4.3362Y-3.4354
X4.3362Y-4.0354
X4.3508Y-4.2327
X4.3508Y-4.5327
X4.4362Y-3.4354
X4.4362Y-4.0354
X4.4508Y-4.2327
X4.4508Y-4.5327
X4.4594Y-4.6461
X4.5362Y-3.4354
X4.5362Y-4.0354
X4.5508Y-4.2327
X4.5508Y-4.5327
X4.6362Y-3.4354
X4.6362Y-4.0354
X4.6508Y-4.2327
X4.6508Y-4.5327
X4.7362Y-3.4354
X4.7362Y-4.0354
X4.8362Y-3.4354
X4.8362Y-4.0354
X4.9362Y-3.4354
X4.9362Y-4.0354
X5.0362Y-3.4354
X5.0362Y-4.0354
X5.1362Y-3.4354
X5.1362Y-4.0354
X5.2362Y-3.4354
X5.2362Y-4.0354
X5.2362Y-4.1831
X5.4331Y-4.1831
X5.6594Y-4.0258
X5.6594Y-4.2227
X6.1417Y-4.685
X6.3386Y-4.685
X6.624Y-3.3795
X6.624Y-3.7795
X6.624Y-3.9043
X6.624Y-4.3043
T3
X5.0264Y-4.5161
X5.0264Y-4.6161
X5.1264Y-4.5161
X5.1264Y-4.6161
X5.2264Y-4.5161
X5.2264Y-4.6161
X5.3264Y-4.5161
X5.3264Y-4.6161
X5.4264Y-4.5161
X5.4264Y-4.6161
M30
